<?xml version="1.0" standalone="no"?>
<!DOCTYPE svg PUBLIC "-//W3C//DTD SVG 1.1//EN" "http://www.w3.org/Graphics/SVG/1.1/DTD/svg11.dtd" >
<svg xmlns="http://www.w3.org/2000/svg">
<metadata>Generated by IcoMoon</metadata>
<defs>
<font id="Deloitte_icon_font_v3" horiz-adv-x="1024">
<font-face units-per-em="1024" ascent="960" descent="-64" />
<missing-glyph horiz-adv-x="1024" />
<glyph unicode="&#x20;" horiz-adv-x="512" d="" />
<glyph unicode="&#xe900;" glyph-name="@_commercial_at_NEG" d="M518.4 576c34.133 0 64-14.933 83.2-25.6l-19.2-119.467c-21.333-36.267-81.067-119.467-136.533-104.533-27.733 8.533-40.533 32-46.933 51.2-14.933 51.2 0 117.333 38.4 160 23.467 27.733 53.333 38.4 81.067 38.4v0zM1024 448c0-283.733-228.267-512-512-512s-512 228.267-512 512c0 283.733 228.267 512 512 512s512-228.267 512-512v0zM832 448c0 177.067-142.933 320-320 320s-320-142.933-320-320c0-177.067 142.933-320 320-320 51.2 0 100.267 10.667 145.067 34.133 10.667 6.4 14.933 19.2 8.533 27.733-6.4 10.667-19.2 14.933-27.733 8.533-38.4-17.067-81.067-27.733-125.867-27.733-153.6 0-277.333 123.733-277.333 277.333s123.733 277.333 277.333 277.333c153.6 0 277.333-123.733 277.333-277.333 0-36.267-6.4-70.4-19.2-102.4 0 0-38.4-76.8-93.867-61.867-68.267 19.2-59.733 102.4-57.6 104.533l27.733 168.533c2.133 8.533-2.133 17.067-8.533 21.333-68.267 44.8-164.267 64-232.533-12.8-46.933-53.333-66.133-134.4-46.933-200.533 12.8-42.667 38.4-70.4 74.667-81.067 57.6-17.067 108.8 25.6 142.933 64 6.4-42.667 29.867-91.733 89.6-108.8 87.467-23.467 140.8 78.933 142.933 85.333 14.933 40.533 23.467 81.067 23.467 123.733v0z" />
<glyph unicode="&#xe901;" glyph-name="@_commercial_at_POS" d="M512 917.333c258.133 0 469.333-211.2 469.333-469.333s-211.2-469.333-469.333-469.333c-258.133 0-469.333 211.2-469.333 469.333s211.2 469.333 469.333 469.333v0zM512 960c-283.733 0-512-228.267-512-512s228.267-512 512-512c283.733 0 512 228.267 512 512s-228.267 512-512 512v0 0zM512 128c-177.067 0-320 142.933-320 320s142.933 320 320 320c177.067 0 320-142.933 320-320 0-42.667-8.533-83.2-23.467-119.467-2.133-6.4-55.467-110.933-142.933-85.333-59.733 17.067-83.2 66.133-89.6 108.8-34.133-40.533-85.333-81.067-142.933-64-36.267 10.667-64 38.4-74.667 81.067-19.2 64 0 147.2 46.933 200.533 68.267 76.8 164.267 57.6 232.533 12.8 6.4-4.267 10.667-12.8 8.533-21.333l-27.733-172.8c0-2.133-10.667-85.333 57.6-104.533 53.333-14.933 91.733 61.867 93.867 61.867 12.8 32 19.2 66.133 19.2 102.4 0 153.6-123.733 277.333-277.333 277.333s-277.333-123.733-277.333-277.333c0-153.6 123.733-277.333 277.333-277.333 44.8 0 87.467 10.667 125.867 29.867 10.667 6.4 23.467 2.133 27.733-8.533 6.4-10.667 2.133-23.467-8.533-27.733-44.8-23.467-93.867-36.267-145.067-36.267v0zM518.4 576c-27.733 0-55.467-8.533-81.067-38.4-36.267-42.667-53.333-108.8-38.4-160 6.4-19.2 19.2-44.8 46.933-51.2 55.467-14.933 115.2 68.267 136.533 104.533l19.2 119.467c-19.2 10.667-51.2 25.6-83.2 25.6v0z" />
<glyph unicode="&#xe902;" glyph-name="3D_NEG" d="M533.333 454.4l256 108.8v-273.067l-256-108.8v273.067zM234.667 311.467l256-128v270.933l-256 108.8v-251.733zM512 701.867l-245.333-104.533 245.333-104.533 245.333 104.533-245.333 104.533zM1024 448c0-283.733-228.267-512-512-512s-512 228.267-512 512c0 283.733 228.267 512 512 512s512-228.267 512-512v0zM832 597.333c0 2.133 0 4.267-2.133 6.4v2.133c0 2.133-2.133 2.133-2.133 4.267 0 0 0 2.133-2.133 2.133-2.133 2.133-4.267 2.133-6.4 4.267v0 0l-298.667 128c-6.4 2.133-10.667 2.133-17.067 0l-298.667-128c-8.533-2.133-12.8-10.667-12.8-19.2v-298.667c0-8.533 4.267-14.933 12.8-19.2l298.667-149.333c2.133-2.133 6.4-2.133 8.533-2.133v0 0 0 0c2.133 0 4.267 0 6.4 2.133v0l298.667 128c8.533 4.267 12.8 10.667 12.8 19.2v320h2.133z" />
<glyph unicode="&#xe903;" glyph-name="3D_POS" d="M512 917.333c258.133 0 469.333-211.2 469.333-469.333s-211.2-469.333-469.333-469.333c-258.133 0-469.333 211.2-469.333 469.333s211.2 469.333 469.333 469.333v0zM512 960c-283.733 0-512-228.267-512-512s228.267-512 512-512c283.733 0 512 228.267 512 512s-228.267 512-512 512v0 0zM829.867 603.733c0 2.133 0 2.133 0 0-2.133 4.267-2.133 4.267-4.267 6.4 0 0 0 2.133-2.133 2.133-2.133 2.133-4.267 2.133-6.4 4.267v0 0l-298.667 128c-6.4 2.133-10.667 2.133-17.067 0l-298.667-128c-6.4-2.133-10.667-10.667-10.667-19.2v-298.667c0-8.533 4.267-14.933 12.8-19.2l298.667-149.333c2.133-2.133 6.4-2.133 8.533-2.133v0 0 0 0c2.133 0 4.267 0 6.4 2.133v0l298.667 128c8.533 4.267 12.8 10.667 12.8 19.2v320c2.133 2.133 2.133 4.267 0 6.4v0zM512 701.867l245.333-104.533-245.333-104.533-245.333 104.533 245.333 104.533zM234.667 565.333l256-108.8v-270.933l-256 128v251.733zM533.333 181.333v273.067l256 108.8v-273.067l-256-108.8z" />
<glyph unicode="&#xe904;" glyph-name="Abacus_NEG" d="M512 960c-283.733 0-512-228.267-512-512s228.267-512 512-512c283.733 0 512 228.267 512 512s-228.267 512-512 512v0zM384 640c14.933 0 29.867-8.533 36.267-21.333h12.8c6.4 12.8 21.333 21.333 36.267 21.333s29.867-8.533 36.267-21.333h98.133c6.4 12.8 21.333 21.333 36.267 21.333 23.467 0 42.667-19.2 42.667-42.667s-19.2-42.667-42.667-42.667c-14.933 0-29.867 8.533-36.267 21.333h-98.133c-6.4-12.8-21.333-21.333-36.267-21.333s-29.867 8.533-36.267 21.333h-12.8c-6.4-12.8-21.333-21.333-36.267-21.333-23.467 0-42.667 19.2-42.667 42.667s19.2 42.667 42.667 42.667v0zM384 490.667c14.933 0 29.867-8.533 36.267-21.333h98.133c6.4 12.8 21.333 21.333 36.267 21.333s29.867-8.533 36.267-21.333h12.8c6.4 12.8 21.333 21.333 36.267 21.333 23.467 0 42.667-19.2 42.667-42.667s-19.2-42.667-42.667-42.667c-14.933 0-29.867 8.533-36.267 21.333h-12.8c-6.4-12.8-21.333-21.333-36.267-21.333s-29.867 8.533-36.267 21.333h-98.133c-6.4-12.8-21.333-21.333-36.267-21.333-23.467 0-42.667 19.2-42.667 42.667s19.2 42.667 42.667 42.667v0zM384 341.333c14.933 0 29.867-8.533 36.267-21.333h55.467c6.4 12.8 21.333 21.333 36.267 21.333s29.867-8.533 36.267-21.333h55.467c6.4 12.8 21.333 21.333 36.267 21.333 23.467 0 42.667-19.2 42.667-42.667s-19.2-42.667-42.667-42.667c-14.933 0-29.867 8.533-36.267 21.333h-55.467c-6.4-12.8-21.333-21.333-36.267-21.333s-29.867 8.533-36.267 21.333h-55.467c-6.4-12.8-21.333-21.333-36.267-21.333-23.467 0-42.667 19.2-42.667 42.667s19.2 42.667 42.667 42.667v0zM768 170.667h-512c-12.8 0-21.333 8.533-21.333 21.333s8.533 21.333 21.333 21.333v490.667c0 12.8 8.533 21.333 21.333 21.333s21.333-8.533 21.333-21.333v-490.667h426.667v490.667c0 12.8 8.533 21.333 21.333 21.333s21.333-8.533 21.333-21.333v-490.667c12.8 0 21.333-8.533 21.333-21.333s-8.533-21.333-21.333-21.333v0z" />
<glyph unicode="&#xe905;" glyph-name="Abacus_POS" d="M512 917.333c258.133 0 469.333-211.2 469.333-469.333s-211.2-469.333-469.333-469.333c-258.133 0-469.333 211.2-469.333 469.333s211.2 469.333 469.333 469.333v0zM512 960c-283.733 0-512-228.267-512-512s228.267-512 512-512c283.733 0 512 228.267 512 512s-228.267 512-512 512v0 0zM789.333 192c0-12.8-8.533-21.333-21.333-21.333h-512c-12.8 0-21.333 8.533-21.333 21.333s8.533 21.333 21.333 21.333v490.667c0 12.8 8.533 21.333 21.333 21.333s21.333-8.533 21.333-21.333v-490.667h426.667v490.667c0 12.8 8.533 21.333 21.333 21.333s21.333-8.533 21.333-21.333v-490.667c12.8 0 21.333-8.533 21.333-21.333v0zM384 256c14.933 0 29.867 8.533 36.267 21.333h55.467c6.4-12.8 21.333-21.333 36.267-21.333s29.867 8.533 36.267 21.333h55.467c6.4-12.8 21.333-21.333 36.267-21.333 23.467 0 42.667 19.2 42.667 42.667s-19.2 42.667-42.667 42.667c-14.933 0-29.867-8.533-36.267-21.333h-55.467c-6.4 12.8-21.333 21.333-36.267 21.333s-29.867-8.533-36.267-21.333h-55.467c-6.4 12.8-21.333 21.333-36.267 21.333-23.467 0-42.667-19.2-42.667-42.667s19.2-42.667 42.667-42.667v0zM384 405.333c14.933 0 29.867 8.533 36.267 21.333h98.133c6.4-12.8 21.333-21.333 36.267-21.333s29.867 8.533 36.267 21.333h12.8c6.4-12.8 21.333-21.333 36.267-21.333 23.467 0 42.667 19.2 42.667 42.667s-19.2 42.667-42.667 42.667c-14.933 0-29.867-8.533-36.267-21.333h-12.8c-6.4 12.8-21.333 21.333-36.267 21.333s-29.867-8.533-36.267-21.333h-98.133c-6.4 12.8-21.333 21.333-36.267 21.333-23.467 0-42.667-19.2-42.667-42.667s19.2-42.667 42.667-42.667v0zM384 554.667c14.933 0 29.867 8.533 36.267 21.333h12.8c6.4-12.8 21.333-21.333 36.267-21.333s29.867 8.533 36.267 21.333h98.133c6.4-12.8 21.333-21.333 36.267-21.333 23.467 0 42.667 19.2 42.667 42.667s-19.2 42.667-42.667 42.667c-14.933 0-29.867-8.533-36.267-21.333h-98.133c-6.4 12.8-21.333 21.333-36.267 21.333s-29.867-8.533-36.267-21.333h-12.8c-6.4 12.8-21.333 21.333-36.267 21.333-23.467 0-42.667-19.2-42.667-42.667s19.2-42.667 42.667-42.667v0z" />
<glyph unicode="&#xe906;" glyph-name="Alarm_clock_NEG" d="M512 618.667c-106.667 0-192-85.333-192-192s85.333-192 192-192c106.667 0 192 85.333 192 192s-85.333 192-192 192v0zM569.6 433.067l-42.667-40.533c-4.267-4.267-8.533-6.4-14.933-6.4s-10.667 2.133-14.933 6.4l-85.333 83.2c-8.533 8.533-8.533 21.333 0 29.867s21.333 8.533 29.867 0l70.4-68.267 27.733 27.733c8.533 8.533 21.333 8.533 29.867 0 8.533-10.667 8.533-23.467 0-32v0zM512 960c-283.733 0-512-228.267-512-512s228.267-512 512-512c283.733 0 512 228.267 512 512s-228.267 512-512 512v0zM245.333 601.6c0 14.933 6.4 29.867 17.067 40.533l53.333 53.333c23.467 23.467 59.733 23.467 83.2 0 8.533-8.533 8.533-21.333 0-29.867s-21.333-8.533-29.867 0c-6.4 6.4-17.067 6.4-23.467 0l-53.333-53.333c-2.133-2.133-4.267-6.4-4.267-10.667s2.133-8.533 4.267-10.667c8.533-8.533 8.533-21.333 0-29.867-4.267-4.267-10.667-6.4-14.933-6.4s-10.667 2.133-14.933 6.4c-10.667 10.667-17.067 25.6-17.067 40.533v0zM701.867 179.2c4.267-10.667 0-23.467-8.533-27.733-4.267-2.133-6.4-2.133-10.667-2.133-8.533 0-14.933 4.267-19.2 12.8l-32 64c-34.133-21.333-76.8-34.133-119.467-34.133s-85.333 12.8-119.467 34.133l-32-64c-4.267-8.533-10.667-12.8-19.2-12.8-2.133 0-6.4 0-8.533 2.133-10.667 4.267-14.933 17.067-8.533 27.733l34.133 70.4c-49.067 42.667-81.067 106.667-81.067 177.067 0 130.133 104.533 234.667 234.667 234.667s234.667-104.533 234.667-234.667c0-70.4-32-132.267-81.067-177.067l36.267-70.4zM761.6 561.067c-4.267-4.267-10.667-6.4-14.933-6.4s-10.667 2.133-14.933 6.4c-8.533 8.533-8.533 21.333 0 29.867 2.133 2.133 4.267 6.4 4.267 10.667s-2.133 8.533-4.267 10.667l-53.333 53.333c-6.4 6.4-17.067 6.4-23.467 0-8.533-8.533-21.333-8.533-29.867 0s-8.533 21.333 0 29.867c23.467 23.467 59.733 23.467 83.2 0l53.333-53.333c10.667-10.667 17.067-25.6 17.067-40.533s-6.4-29.867-17.067-40.533v0z" />
<glyph unicode="&#xe907;" glyph-name="Alarm_clock_POS" d="M512 917.333c258.133 0 469.333-211.2 469.333-469.333s-211.2-469.333-469.333-469.333c-258.133 0-469.333 211.2-469.333 469.333s211.2 469.333 469.333 469.333v0zM512 960c-283.733 0-512-228.267-512-512s228.267-512 512-512c283.733 0 512 228.267 512 512s-228.267 512-512 512v0 0zM746.667 426.667c0 130.133-104.533 234.667-234.667 234.667s-234.667-104.533-234.667-234.667c0-70.4 32-132.267 81.067-177.067l-34.133-70.4c-4.267-10.667 0-23.467 8.533-27.733 2.133-2.133 4.267-2.133 8.533-2.133 8.533 0 14.933 4.267 19.2 12.8l32 64c34.133-21.333 76.8-34.133 119.467-34.133s85.333 12.8 119.467 34.133l32-64c4.267-8.533 10.667-12.8 19.2-12.8 2.133 0 6.4 0 8.533 2.133 10.667 4.267 14.933 17.067 8.533 27.733l-34.133 70.4c49.067 44.8 81.067 106.667 81.067 177.067v0zM320 426.667c0 106.667 85.333 192 192 192s192-85.333 192-192c0-106.667-85.333-192-192-192s-192 85.333-192 192v0zM569.6 462.933c8.533-8.533 8.533-21.333 0-29.867l-42.667-40.533c-4.267-4.267-8.533-6.4-14.933-6.4s-10.667 2.133-14.933 6.4l-85.333 83.2c-8.533 8.533-8.533 21.333 0 29.867s21.333 8.533 29.867 0l70.4-68.267 27.733 27.733c8.533 6.4 21.333 6.4 29.867-2.133v0zM279.467 554.667c-6.4 0-10.667 2.133-14.933 6.4-10.667 10.667-17.067 25.6-17.067 40.533s6.4 29.867 17.067 40.533l53.333 53.333c23.467 23.467 59.733 23.467 83.2 0 8.533-8.533 8.533-21.333 0-29.867s-21.333-8.533-29.867 0c-6.4 6.4-17.067 6.4-23.467 0l-53.333-53.333c-2.133-2.133-4.267-6.4-4.267-10.667s2.133-8.533 4.267-10.667c8.533-8.533 8.533-21.333 0-29.867-4.267-4.267-10.667-6.4-14.933-6.4v0zM778.667 601.6c0-14.933-6.4-29.867-17.067-40.533-4.267-4.267-10.667-6.4-14.933-6.4s-10.667 2.133-14.933 6.4c-8.533 8.533-8.533 21.333 0 29.867 2.133 2.133 4.267 6.4 4.267 10.667s-2.133 8.533-4.267 10.667l-53.333 53.333c-6.4 6.4-17.067 6.4-23.467 0-8.533-8.533-21.333-8.533-29.867 0s-8.533 21.333 0 29.867c23.467 23.467 59.733 23.467 83.2 0l53.333-53.333c10.667-8.533 17.067-23.467 17.067-40.533v0z" />
<glyph unicode="&#xe908;" glyph-name="Ambulance_NEG" d="M234.667 298.667h25.6c8.533 25.6 32 42.667 59.733 42.667s51.2-17.067 59.733-42.667h238.933v298.667h-384v-298.667zM362.667 490.667h42.667v42.667c0 12.8 8.533 21.333 21.333 21.333s21.333-8.533 21.333-21.333v-42.667h42.667c12.8 0 21.333-8.533 21.333-21.333s-8.533-21.333-21.333-21.333h-42.667v-42.667c0-12.8-8.533-21.333-21.333-21.333s-21.333 8.533-21.333 21.333v42.667h-42.667c-12.8 0-21.333 8.533-21.333 21.333s8.533 21.333 21.333 21.333v0zM576 640h-42.667c0 12.8 8.533 21.333 21.333 21.333s21.333-8.533 21.333-21.333v0zM512 960c-283.733 0-512-228.267-512-512s228.267-512 512-512c283.733 0 512 228.267 512 512s-228.267 512-512 512v0zM832 277.333c0-12.8-8.533-21.333-21.333-21.333h-68.267c-8.533-25.6-32-42.667-59.733-42.667s-51.2 17.067-59.733 42.667h-243.2c-8.533-25.6-32-42.667-59.733-42.667s-51.2 17.067-59.733 42.667h-46.933c-12.8 0-21.333 8.533-21.333 21.333v341.333c0 12.8 8.533 21.333 21.333 21.333h277.333c0 36.267 27.733 64 64 64s64-27.733 64-64h21.333c12.8 0 21.333-8.533 21.333-21.333v-106.667h106.667c36.267 0 64-27.733 64-64v-170.667zM704 277.333c0-12.8-8.533-21.333-21.333-21.333s-21.333 8.533-21.333 21.333c0 12.8 8.533 21.333 21.333 21.333s21.333-8.533 21.333-21.333v0zM789.333 448v-149.333h-46.933c-8.533 25.6-32 42.667-59.733 42.667-8.533 0-14.933-2.133-21.333-4.267v132.267h106.667c12.8 0 21.333-8.533 21.333-21.333v0zM341.333 277.333c0-12.8-8.533-21.333-21.333-21.333s-21.333 8.533-21.333 21.333c0 12.8 8.533 21.333 21.333 21.333s21.333-8.533 21.333-21.333v0z" />
<glyph unicode="&#xe909;" glyph-name="Ambulance_POS" d="M512 917.333c258.133 0 469.333-211.2 469.333-469.333s-211.2-469.333-469.333-469.333c-258.133 0-469.333 211.2-469.333 469.333s211.2 469.333 469.333 469.333v0zM512 960c-283.733 0-512-228.267-512-512s228.267-512 512-512c283.733 0 512 228.267 512 512s-228.267 512-512 512v0 0zM768 512h-106.667v106.667c0 12.8-8.533 21.333-21.333 21.333h-21.333c0 36.267-27.733 64-64 64s-64-27.733-64-64h-277.333c-12.8 0-21.333-8.533-21.333-21.333v-341.333c0-12.8 8.533-21.333 21.333-21.333h46.933c8.533-25.6 32-42.667 59.733-42.667s51.2 17.067 59.733 42.667h243.2c8.533-25.6 32-42.667 59.733-42.667s51.2 17.067 59.733 42.667h68.267c12.8 0 21.333 8.533 21.333 21.333v170.667c0 36.267-27.733 64-64 64v0zM554.667 661.333c12.8 0 21.333-8.533 21.333-21.333h-42.667c0 12.8 8.533 21.333 21.333 21.333v0zM234.667 597.333h384v-298.667h-238.933c-8.533 25.6-32 42.667-59.733 42.667s-51.2-17.067-59.733-42.667h-25.6v298.667zM320 256c-12.8 0-21.333 8.533-21.333 21.333s8.533 21.333 21.333 21.333c12.8 0 21.333-8.533 21.333-21.333s-8.533-21.333-21.333-21.333v0zM682.667 256c-12.8 0-21.333 8.533-21.333 21.333s8.533 21.333 21.333 21.333c12.8 0 21.333-8.533 21.333-21.333s-8.533-21.333-21.333-21.333v0zM789.333 298.667h-46.933c-8.533 25.6-32 42.667-59.733 42.667-8.533 0-14.933-2.133-21.333-4.267v132.267h106.667c12.8 0 21.333-8.533 21.333-21.333v-149.333zM341.333 469.333c0 12.8 8.533 21.333 21.333 21.333h42.667v42.667c0 12.8 8.533 21.333 21.333 21.333s21.333-8.533 21.333-21.333v-42.667h42.667c12.8 0 21.333-8.533 21.333-21.333s-8.533-21.333-21.333-21.333h-42.667v-42.667c0-12.8-8.533-21.333-21.333-21.333s-21.333 8.533-21.333 21.333v42.667h-42.667c-12.8 0-21.333 8.533-21.333 21.333v0z" />
<glyph unicode="&#xe90a;" glyph-name="Anchor_NEG" d="M512 640c-23.467 0-42.667 19.2-42.667 42.667s19.2 42.667 42.667 42.667c23.467 0 42.667-19.2 42.667-42.667s-19.2-42.667-42.667-42.667v0zM1024 448c0-283.733-228.267-512-512-512s-512 228.267-512 512c0 283.733 228.267 512 512 512s512-228.267 512-512v0zM787.2 264.533l-21.333 42.667c-4.267 8.533-10.667 12.8-19.2 12.8h-42.667c-12.8 0-21.333-8.533-21.333-21.333s8.533-21.333 21.333-21.333h4.267c-38.4-59.733-104.533-98.133-174.933-104.533v317.867h42.667c12.8 0 21.333 8.533 21.333 21.333s-8.533 21.333-21.333 21.333h-42.667v66.133c36.267 8.533 64 42.667 64 83.2 0 46.933-38.4 85.333-85.333 85.333s-85.333-38.4-85.333-85.333c0-40.533 27.733-72.533 64-83.2v-66.133h-42.667c-12.8 0-21.333-8.533-21.333-21.333s8.533-21.333 21.333-21.333h42.667v-317.867c-72.533 6.4-136.533 44.8-174.933 104.533h4.267c12.8 0 21.333 8.533 21.333 21.333s-8.533 21.333-21.333 21.333h-40.533c-8.533 0-14.933-4.267-19.2-12.8l-21.333-42.667c-4.267-10.667 0-23.467 8.533-27.733 2.133-2.133 4.267-2.133 8.533-2.133 8.533 0 14.933 4.267 19.2 12.8l4.267 8.533c51.2-78.933 138.667-128 232.533-128s181.333 49.067 232.533 125.867l4.267-8.533c4.267-8.533 10.667-12.8 19.2-12.8 2.133 0 6.4 0 8.533 2.133 10.667 8.533 14.933 21.333 10.667 29.867v0z" />
<glyph unicode="&#xe90b;" glyph-name="Anchor_POS" d="M512 917.333c258.133 0 469.333-211.2 469.333-469.333s-211.2-469.333-469.333-469.333c-258.133 0-469.333 211.2-469.333 469.333s211.2 469.333 469.333 469.333v0zM512 960c-283.733 0-512-228.267-512-512s228.267-512 512-512c283.733 0 512 228.267 512 512s-228.267 512-512 512v0 0zM787.2 264.533l-21.333 42.667c-4.267 8.533-10.667 12.8-19.2 12.8h-42.667c-12.8 0-21.333-8.533-21.333-21.333s8.533-21.333 21.333-21.333h4.267c-38.4-59.733-104.533-98.133-174.933-104.533v317.867h42.667c12.8 0 21.333 8.533 21.333 21.333s-8.533 21.333-21.333 21.333h-42.667v66.133c36.267 8.533 64 42.667 64 83.2 0 46.933-38.4 85.333-85.333 85.333s-85.333-38.4-85.333-85.333c0-40.533 27.733-72.533 64-83.2v-66.133h-42.667c-12.8 0-21.333-8.533-21.333-21.333s8.533-21.333 21.333-21.333h42.667v-317.867c-72.533 6.4-136.533 44.8-174.933 104.533h4.267c12.8 0 21.333 8.533 21.333 21.333s-8.533 21.333-21.333 21.333h-40.533c-8.533 0-14.933-4.267-19.2-12.8l-21.333-42.667c-4.267-10.667 0-23.467 8.533-27.733 2.133-2.133 4.267-2.133 8.533-2.133 8.533 0 14.933 4.267 19.2 12.8l4.267 8.533c51.2-78.933 138.667-128 232.533-128s181.333 49.067 232.533 125.867l4.267-8.533c4.267-8.533 10.667-12.8 19.2-12.8 2.133 0 6.4 0 8.533 2.133 10.667 8.533 14.933 21.333 10.667 29.867v0zM469.333 682.667c0 23.467 19.2 42.667 42.667 42.667s42.667-19.2 42.667-42.667c0-23.467-19.2-42.667-42.667-42.667s-42.667 19.2-42.667 42.667v0z" />
<glyph unicode="&#xe90c;" glyph-name="Apple_NEG" d="M533.333 642.133c0 14.933 4.267 36.267 19.2 53.333s36.267 25.6 64 29.867c-2.133-8.533-4.267-21.333-10.667-32-14.933-29.867-40.533-46.933-72.533-51.2v0zM661.333 618.667c-23.467 0-40.533-4.267-53.333-10.667-42.667-25.6-89.6-34.133-134.4-25.6-19.2 4.267-36.267 10.667-51.2 19.2-19.2 8.533-38.4 17.067-59.733 17.067-70.4 0-128-57.6-128-128 0-192 138.667-302.933 140.8-302.933l2.133-2.133c8.533-10.667 17.067-14.933 27.733-14.933 4.267 0 10.667 0 14.933 2.133 0 0 42.667 19.2 91.733 19.2s91.733-19.2 93.867-19.2c2.133 0 8.533-2.133 12.8-2.133 10.667 0 17.067 4.267 27.733 14.933l2.133 2.133c2.133 0 140.8 110.933 140.8 302.933 0 70.4-57.6 128-128 128v0zM1024 448c0-283.733-228.267-512-512-512s-512 228.267-512 512c0 283.733 228.267 512 512 512s512-228.267 512-512v0zM832 490.667c0 93.867-76.8 170.667-170.667 170.667-8.533 0-17.067 0-25.6-2.133 2.133 4.267 6.4 8.533 8.533 12.8 17.067 38.4 17.067 72.533 17.067 74.667 0 12.8-8.533 21.333-21.333 21.333-55.467 0-96-14.933-121.6-46.933-4.267-4.267-6.4-8.533-8.533-12.8-21.333 36.267-49.067 53.333-49.067 55.467-10.667 6.4-23.467 4.267-29.867-6.4s-4.267-23.467 6.4-29.867c2.133-2.133 44.8-29.867 53.333-91.733v-12.8h-6.4c-14.933 2.133-27.733 8.533-42.667 14.933-23.467 10.667-46.933 21.333-76.8 21.333-93.867 0-170.667-76.8-170.667-170.667 0-202.667 138.667-322.133 155.733-334.933 12.8-12.8 29.867-27.733 57.6-27.733 10.667 0 19.2 2.133 29.867 6.4 0 0 36.267 14.933 76.8 14.933s76.8-14.933 78.933-17.067c8.533-4.267 19.2-4.267 27.733-4.267 27.733 0 44.8 14.933 57.6 27.733 14.933 14.933 153.6 134.4 153.6 337.067v0z" />
<glyph unicode="&#xe90d;" glyph-name="Apple_POS" d="M512 917.333c258.133 0 469.333-211.2 469.333-469.333s-211.2-469.333-469.333-469.333c-258.133 0-469.333 211.2-469.333 469.333s211.2 469.333 469.333 469.333v0zM512 960c-283.733 0-512-228.267-512-512s228.267-512 512-512c283.733 0 512 228.267 512 512s-228.267 512-512 512v0 0zM661.333 661.333c-8.533 0-17.067 0-25.6-2.133 2.133 4.267 6.4 8.533 8.533 12.8 17.067 38.4 17.067 72.533 17.067 74.667 0 12.8-8.533 21.333-21.333 21.333-55.467 0-96-14.933-121.6-46.933-4.267-4.267-6.4-8.533-8.533-12.8-21.333 36.267-49.067 53.333-49.067 55.467-10.667 6.4-23.467 4.267-29.867-6.4s-4.267-23.467 6.4-29.867c2.133-2.133 44.8-29.867 53.333-91.733v-12.8h-6.4c-14.933 2.133-27.733 8.533-42.667 14.933-23.467 10.667-46.933 21.333-76.8 21.333-93.867 0-170.667-76.8-170.667-170.667 0-202.667 138.667-322.133 155.733-334.933 12.8-12.8 29.867-27.733 57.6-27.733 10.667 0 19.2 2.133 29.867 6.4 0 0 36.267 14.933 76.8 14.933s76.8-14.933 78.933-17.067c8.533-4.267 19.2-4.267 27.733-4.267 27.733 0 44.8 14.933 57.6 27.733 14.933 14.933 153.6 134.4 153.6 337.067 0 93.867-76.8 170.667-170.667 170.667v0zM550.4 693.333c14.933 17.067 36.267 25.6 64 29.867-2.133-8.533-4.267-21.333-10.667-32-14.933-29.867-38.4-46.933-72.533-51.2 2.133 17.067 6.4 38.4 19.2 53.333v0zM648.533 187.733l-2.133-2.133c-10.667-10.667-17.067-14.933-27.733-14.933-4.267 0-10.667 0-12.8 2.133-2.133 0-44.8 19.2-93.867 19.2s-91.733-19.2-91.733-19.2c-4.267-2.133-10.667-2.133-14.933-2.133-10.667 0-17.067 4.267-27.733 14.933l-2.133 2.133c-2.133 0-140.8 110.933-140.8 302.933 0 70.4 57.6 128 128 128 21.333 0 40.533-8.533 59.733-17.067 17.067-6.4 32-14.933 51.2-19.2 44.8-8.533 91.733 0 134.4 25.6 12.8 8.533 29.867 10.667 53.333 10.667 70.4 0 128-57.6 128-128 0-192-138.667-302.933-140.8-302.933v0z" />
<glyph unicode="&#xe90e;" glyph-name="Archive_box_NEG" d="M277.333 213.333h469.333v341.333h-469.333v-341.333zM448 490.667h128c12.8 0 21.333-8.533 21.333-21.333s-8.533-21.333-21.333-21.333h-128c-12.8 0-21.333 8.533-21.333 21.333s8.533 21.333 21.333 21.333v0zM234.667 640h554.667v-42.667h-554.667v42.667zM512 960c-283.733 0-512-228.267-512-512s228.267-512 512-512c283.733 0 512 228.267 512 512s-228.267 512-512 512v0zM832 576c0-12.8-8.533-21.333-21.333-21.333h-21.333v-362.667c0-12.8-8.533-21.333-21.333-21.333h-512c-12.8 0-21.333 8.533-21.333 21.333v362.667h-21.333c-12.8 0-21.333 8.533-21.333 21.333v85.333c0 12.8 8.533 21.333 21.333 21.333h597.333c12.8 0 21.333-8.533 21.333-21.333v-85.333z" />
<glyph unicode="&#xe90f;" glyph-name="Archive_box_POS" d="M512 917.333c258.133 0 469.333-211.2 469.333-469.333s-211.2-469.333-469.333-469.333c-258.133 0-469.333 211.2-469.333 469.333s211.2 469.333 469.333 469.333v0zM512 960c-283.733 0-512-228.267-512-512s228.267-512 512-512c283.733 0 512 228.267 512 512s-228.267 512-512 512v0 0zM810.667 682.667h-597.333c-12.8 0-21.333-8.533-21.333-21.333v-85.333c0-12.8 8.533-21.333 21.333-21.333h21.333v-362.667c0-12.8 8.533-21.333 21.333-21.333h512c12.8 0 21.333 8.533 21.333 21.333v362.667h21.333c12.8 0 21.333 8.533 21.333 21.333v85.333c0 12.8-8.533 21.333-21.333 21.333v0zM746.667 213.333h-469.333v341.333h469.333v-341.333zM789.333 597.333h-554.667v42.667h554.667v-42.667zM426.667 469.333c0 12.8 8.533 21.333 21.333 21.333h128c12.8 0 21.333-8.533 21.333-21.333s-8.533-21.333-21.333-21.333h-128c-12.8 0-21.333 8.533-21.333 21.333v0z" />
<glyph unicode="&#xe910;" glyph-name="Armchair_NEG" d="M1024 448c0-282.77-229.23-512-512-512s-512 229.23-512 512c0 282.77 229.23 512 512 512 135.791 0 266.020-53.943 362.039-149.961s149.961-226.248 149.961-362.039v0zM704 234.667v-21.333c0-11.782 9.551-21.333 21.333-21.333h42.667c11.782 0 21.333 9.551 21.333 21.333v21.333h21.333c11.782 0 21.333 9.551 21.333 21.333v213.333c0 47.128-38.205 85.333-85.333 85.333-15.026-0.156-29.744-4.277-42.667-11.947v118.613c0 11.782-9.551 21.333-21.333 21.333h-341.333c-11.782 0-21.333-9.551-21.333-21.333v-118.613c-12.922 7.669-27.641 11.791-42.667 11.947-47.128 0-85.333-38.205-85.333-85.333v-213.333c0-11.782 9.551-21.333 21.333-21.333h21.333v-21.333c0-11.782 9.551-21.333 21.333-21.333h42.667c11.782 0 21.333 9.551 21.333 21.333v21.333h384zM704 277.333v192c0 23.564 19.103 42.667 42.667 42.667s42.667-19.103 42.667-42.667v-192h-85.333zM362.667 384h298.667v-106.667h-298.667v106.667zM661.333 426.667h-298.667v213.333h298.667v-213.333zM320 277.333h-85.333v192c0 23.564 19.103 42.667 42.667 42.667s42.667-19.103 42.667-42.667v-192z" />
<glyph unicode="&#xe911;" glyph-name="Armchair_POS" d="M512 917.333c259.206 0 469.333-210.128 469.333-469.333s-210.128-469.333-469.333-469.333c-259.206 0-469.333 210.128-469.333 469.333s210.128 469.333 469.333 469.333v0zM512 960c-282.77 0-512-229.23-512-512s229.23-512 512-512c282.77 0 512 229.23 512 512s-229.23 512-512 512v0 0zM704 234.667v-21.333c0-11.782 9.551-21.333 21.333-21.333h42.667c11.782 0 21.333 9.551 21.333 21.333v21.333h21.333c11.782 0 21.333 9.551 21.333 21.333v213.333c0 47.128-38.205 85.333-85.333 85.333-15.026-0.156-29.744-4.277-42.667-11.947v118.613c0 11.782-9.551 21.333-21.333 21.333h-341.333c-11.782 0-21.333-9.551-21.333-21.333v-118.613c-12.922 7.669-27.641 11.791-42.667 11.947-47.128 0-85.333-38.205-85.333-85.333v-213.333c0-11.782 9.551-21.333 21.333-21.333h21.333v-21.333c0-11.782 9.551-21.333 21.333-21.333h42.667c11.782 0 21.333 9.551 21.333 21.333v21.333h384zM704 277.333v192c0 23.564 19.103 42.667 42.667 42.667s42.667-19.103 42.667-42.667v-192h-85.333zM362.667 384h298.667v-106.667h-298.667v106.667zM661.333 426.667h-298.667v213.333h298.667v-213.333zM320 277.333h-85.333v192c0 23.564 19.103 42.667 42.667 42.667s42.667-19.103 42.667-42.667v-192z" />
<glyph unicode="&#xe912;" glyph-name="Arrow_double_down_NEG" d="M512 960c-283.733 0-512-228.267-512-512s228.267-512 512-512c283.733 0 512 228.267 512 512s-228.267 512-512 512v0zM825.6 646.4l-298.667-298.667c-4.267-4.267-8.533-6.4-14.933-6.4s-10.667 2.133-14.933 6.4l-298.667 298.667c-8.533 8.533-8.533 21.333 0 29.867s21.333 8.533 29.867 0l283.733-283.733 283.733 283.733c8.533 8.533 21.333 8.533 29.867 0s8.533-21.333 0-29.867v0zM825.6 433.067l-298.667-298.667c-4.267-4.267-8.533-6.4-14.933-6.4s-10.667 2.133-14.933 6.4l-298.667 298.667c-8.533 8.533-8.533 21.333 0 29.867s21.333 8.533 29.867 0l283.733-283.733 283.733 283.733c8.533 8.533 21.333 8.533 29.867 0s8.533-21.333 0-29.867v0z" />
<glyph unicode="&#xe913;" glyph-name="Arrow_double_down_POS" d="M512 960c-283.733 0-512-228.267-512-512s228.267-512 512-512c283.733 0 512 228.267 512 512s-228.267 512-512 512v0zM512-21.333c-258.133 0-469.333 211.2-469.333 469.333s211.2 469.333 469.333 469.333c258.133 0 469.333-211.2 469.333-469.333s-211.2-469.333-469.333-469.333v0zM825.6 676.267c8.533-8.533 8.533-21.333 0-29.867l-298.667-298.667c-4.267-4.267-8.533-6.4-14.933-6.4s-10.667 2.133-14.933 6.4l-298.667 298.667c-8.533 8.533-8.533 21.333 0 29.867s21.333 8.533 29.867 0l283.733-283.733 283.733 283.733c8.533 8.533 21.333 8.533 29.867 0v0zM825.6 462.933c8.533-8.533 8.533-21.333 0-29.867l-298.667-298.667c-4.267-4.267-8.533-6.4-14.933-6.4s-10.667 2.133-14.933 6.4l-298.667 298.667c-8.533 8.533-8.533 21.333 0 29.867s21.333 8.533 29.867 0l283.733-283.733 283.733 283.733c8.533 8.533 21.333 8.533 29.867 0v0z" />
<glyph unicode="&#xe914;" glyph-name="Arrow_double_Left_NEG" d="M1024 448c0 283.733-228.267 512-512 512s-512-228.267-512-512c0-283.733 228.267-512 512-512s512 228.267 512 512v0zM710.4 134.4l-298.667 298.667c-4.267 4.267-6.4 8.533-6.4 14.933s2.133 10.667 6.4 14.933l298.667 298.667c8.533 8.533 21.333 8.533 29.867 0s8.533-21.333 0-29.867l-283.733-283.733 283.733-283.733c8.533-8.533 8.533-21.333 0-29.867s-21.333-8.533-29.867 0v0zM497.067 134.4l-298.667 298.667c-4.267 4.267-6.4 8.533-6.4 14.933s2.133 10.667 6.4 14.933l298.667 298.667c8.533 8.533 21.333 8.533 29.867 0s8.533-21.333 0-29.867l-283.733-283.733 283.733-283.733c8.533-8.533 8.533-21.333 0-29.867s-21.333-8.533-29.867 0v0z" />
<glyph unicode="&#xe915;" glyph-name="Arrow_double_Left_POS" d="M512 960c-283.733 0-512-228.267-512-512s228.267-512 512-512c283.733 0 512 228.267 512 512s-228.267 512-512 512v0zM512-21.333c-258.133 0-469.333 211.2-469.333 469.333s211.2 469.333 469.333 469.333c258.133 0 469.333-211.2 469.333-469.333s-211.2-469.333-469.333-469.333v0zM740.267 164.267c8.533-8.533 8.533-21.333 0-29.867-4.267-4.267-8.533-6.4-14.933-6.4s-10.667 2.133-14.933 6.4l-298.667 298.667c-8.533 8.533-8.533 21.333 0 29.867l298.667 298.667c8.533 8.533 21.333 8.533 29.867 0s8.533-21.333 0-29.867l-283.733-283.733 283.733-283.733zM526.933 164.267c8.533-8.533 8.533-21.333 0-29.867-4.267-4.267-8.533-6.4-14.933-6.4s-10.667 2.133-14.933 6.4l-298.667 298.667c-8.533 8.533-8.533 21.333 0 29.867l298.667 298.667c8.533 8.533 21.333 8.533 29.867 0s8.533-21.333 0-29.867l-283.733-283.733 283.733-283.733z" />
<glyph unicode="&#xe916;" glyph-name="Arrow_double_right_NEG" d="M512 960c-283.733 0-512-228.267-512-512s228.267-512 512-512c283.733 0 512 228.267 512 512s-228.267 512-512 512v0zM298.667 128c-6.4 0-10.667 2.133-14.933 6.4-8.533 8.533-8.533 21.333 0 29.867l283.733 283.733-283.733 283.733c-8.533 8.533-8.533 21.333 0 29.867s21.333 8.533 29.867 0l298.667-298.667c8.533-8.533 8.533-21.333 0-29.867l-298.667-298.667c-4.267-4.267-8.533-6.4-14.933-6.4v0zM825.6 433.067l-298.667-298.667c-4.267-4.267-8.533-6.4-14.933-6.4s-10.667 2.133-14.933 6.4c-8.533 8.533-8.533 21.333 0 29.867l283.733 283.733-283.733 283.733c-8.533 8.533-8.533 21.333 0 29.867s21.333 8.533 29.867 0l298.667-298.667c8.533-8.533 8.533-21.333 0-29.867v0z" />
<glyph unicode="&#xe917;" glyph-name="Arrow_double_right_POS" d="M512 960c-283.733 0-512-228.267-512-512s228.267-512 512-512c283.733 0 512 228.267 512 512s-228.267 512-512 512v0zM512-21.333c-258.133 0-469.333 211.2-469.333 469.333s211.2 469.333 469.333 469.333c258.133 0 469.333-211.2 469.333-469.333s-211.2-469.333-469.333-469.333v0zM612.267 433.067l-298.667-298.667c-4.267-4.267-8.533-6.4-14.933-6.4s-10.667 2.133-14.933 6.4c-8.533 8.533-8.533 21.333 0 29.867l283.733 283.733-283.733 283.733c-8.533 8.533-8.533 21.333 0 29.867s21.333 8.533 29.867 0l298.667-298.667c8.533-8.533 8.533-21.333 0-29.867v0zM825.6 433.067l-298.667-298.667c-4.267-4.267-8.533-6.4-14.933-6.4s-10.667 2.133-14.933 6.4c-8.533 8.533-8.533 21.333 0 29.867l283.733 283.733-283.733 283.733c-8.533 8.533-8.533 21.333 0 29.867s21.333 8.533 29.867 0l298.667-298.667c8.533-8.533 8.533-21.333 0-29.867v0z" />
<glyph unicode="&#xe918;" glyph-name="Arrow_double_up_NEG" d="M512 960c-283.733 0-512-228.267-512-512s228.267-512 512-512c283.733 0 512 228.267 512 512s-228.267 512-512 512v0zM825.6 219.733c-4.267-4.267-8.533-6.4-14.933-6.4s-10.667 2.133-14.933 6.4l-283.733 283.733-283.733-283.733c-8.533-8.533-21.333-8.533-29.867 0s-8.533 21.333 0 29.867l298.667 298.667c8.533 8.533 21.333 8.533 29.867 0l298.667-298.667c8.533-8.533 8.533-21.333 0-29.867v0zM825.6 433.067c-4.267-4.267-8.533-6.4-14.933-6.4s-10.667 2.133-14.933 6.4l-283.733 283.733-283.733-283.733c-8.533-8.533-21.333-8.533-29.867 0s-8.533 21.333 0 29.867l298.667 298.667c8.533 8.533 21.333 8.533 29.867 0l298.667-298.667c8.533-8.533 8.533-21.333 0-29.867v0z" />
<glyph unicode="&#xe919;" glyph-name="Arrow_double_up_POS" d="M512 917.333c258.133 0 469.333-211.2 469.333-469.333s-211.2-469.333-469.333-469.333c-258.133 0-469.333 211.2-469.333 469.333s211.2 469.333 469.333 469.333v0zM512 960c-283.733 0-512-228.267-512-512s228.267-512 512-512c283.733 0 512 228.267 512 512s-228.267 512-512 512v0 0zM825.6 219.733c8.533 8.533 8.533 21.333 0 29.867l-298.667 298.667c-8.533 8.533-21.333 8.533-29.867 0l-298.667-298.667c-8.533-8.533-8.533-21.333 0-29.867s21.333-8.533 29.867 0l283.733 283.733 283.733-283.733c4.267-4.267 10.667-6.4 14.933-6.4s10.667 2.133 14.933 6.4v0zM825.6 433.067c8.533 8.533 8.533 21.333 0 29.867l-298.667 298.667c-8.533 8.533-21.333 8.533-29.867 0l-298.667-298.667c-8.533-8.533-8.533-21.333 0-29.867s21.333-8.533 29.867 0l283.733 283.733 283.733-283.733c4.267-4.267 10.667-6.4 14.933-6.4s10.667 2.133 14.933 6.4v0z" />
<glyph unicode="&#xe91a;" glyph-name="Arrow_down_Left_turn_NEG" d="M512 960c-283.733 0-512-228.267-512-512s228.267-512 512-512c283.733 0 512 228.267 512 512s-228.267 512-512 512v0zM832 341.333c0-12.8-8.533-21.333-21.333-21.333h-546.133l134.4-134.4c8.533-8.533 8.533-21.333 0-29.867-4.267-4.267-8.533-6.4-14.933-6.4s-10.667 2.133-14.933 6.4l-170.667 170.667c-2.133 2.133-4.267 4.267-4.267 6.4-2.133 4.267-2.133 10.667 0 17.067 2.133 2.133 2.133 4.267 4.267 6.4l170.667 170.667c8.533 8.533 21.333 8.533 29.867 0s8.533-21.333 0-29.867l-134.4-134.4h524.8v234.667c0 12.8 8.533 21.333 21.333 21.333s21.333-8.533 21.333-21.333v-256z" />
<glyph unicode="&#xe91b;" glyph-name="Arrow_down_Left_turn_POS" d="M512 917.333c258.133 0 469.333-211.2 469.333-469.333s-211.2-469.333-469.333-469.333c-258.133 0-469.333 211.2-469.333 469.333s211.2 469.333 469.333 469.333v0zM512 960c-283.733 0-512-228.267-512-512s228.267-512 512-512c283.733 0 512 228.267 512 512s-228.267 512-512 512v0 0zM810.667 618.667c-12.8 0-21.333-8.533-21.333-21.333v-234.667h-524.8l134.4 134.4c8.533 8.533 8.533 21.333 0 29.867s-21.333 8.533-29.867 0l-170.667-170.667c-2.133-2.133-4.267-4.267-4.267-6.4-2.133-4.267-2.133-10.667 0-17.067 2.133-2.133 2.133-4.267 4.267-6.4l170.667-170.667c4.267-4.267 10.667-6.4 14.933-6.4s10.667 2.133 14.933 6.4c8.533 8.533 8.533 21.333 0 29.867l-134.4 134.4h546.133c12.8 0 21.333 8.533 21.333 21.333v256c0 12.8-8.533 21.333-21.333 21.333v0z" />
<glyph unicode="&#xe91c;" glyph-name="Arrow_down_NEG" d="M512 960c-283.733 0-512-228.267-512-512s228.267-512 512-512c283.733 0 512 228.267 512 512s-228.267 512-512 512v0zM697.6 305.067l-170.667-170.667c-2.133-2.133-4.267-4.267-6.4-4.267-2.133-2.133-6.4-2.133-8.533-2.133s-6.4 0-8.533 2.133c-2.133 2.133-4.267 2.133-6.4 4.267l-170.667 170.667c-8.533 8.533-8.533 21.333 0 29.867s21.333 8.533 29.867 0l134.4-134.4v546.133c0 12.8 8.533 21.333 21.333 21.333s21.333-8.533 21.333-21.333v-546.133l134.4 134.4c8.533 8.533 21.333 8.533 29.867 0s8.533-21.333 0-29.867v0z" />
<glyph unicode="&#xe91d;" glyph-name="Arrow_down_POS" d="M697.6 334.933c-8.533 8.533-21.333 8.533-29.867 0l-134.4-134.4v546.133c0 12.8-8.533 21.333-21.333 21.333s-21.333-8.533-21.333-21.333v-546.133l-134.4 134.4c-8.533 8.533-21.333 8.533-29.867 0s-8.533-21.333 0-29.867l170.667-170.667c2.133-2.133 4.267-4.267 6.4-4.267 2.133-2.133 6.4-2.133 8.533-2.133s6.4 0 8.533 2.133c2.133 2.133 4.267 2.133 6.4 4.267l170.667 170.667c8.533 8.533 8.533 21.333 0 29.867v0zM512 917.333c258.133 0 469.333-211.2 469.333-469.333s-211.2-469.333-469.333-469.333c-258.133 0-469.333 211.2-469.333 469.333s211.2 469.333 469.333 469.333v0zM512 960c-283.733 0-512-228.267-512-512s228.267-512 512-512c283.733 0 512 228.267 512 512s-228.267 512-512 512v0 0z" />
<glyph unicode="&#xe91e;" glyph-name="Arrow_down_right_turn_NEG" d="M512 960c-283.733 0-512-228.267-512-512s228.267-512 512-512c283.733 0 512 228.267 512 512s-228.267 512-512 512v0zM829.867 332.8c-2.133-2.133-2.133-4.267-4.267-6.4l-170.667-170.667c-4.267-4.267-8.533-6.4-14.933-6.4s-10.667 2.133-14.933 6.4c-8.533 8.533-8.533 21.333 0 29.867l134.4 134.4h-546.133c-12.8 0-21.333 8.533-21.333 21.333v256c0 12.8 8.533 21.333 21.333 21.333s21.333-8.533 21.333-21.333v-234.667h524.8l-134.4 134.4c-8.533 8.533-8.533 21.333 0 29.867s21.333 8.533 29.867 0l170.667-170.667c2.133-2.133 4.267-4.267 4.267-6.4 2.133-6.4 2.133-10.667 0-17.067v0z" />
<glyph unicode="&#xe91f;" glyph-name="Arrow_down_right_turn_POS" d="M512 917.333c258.133 0 469.333-211.2 469.333-469.333s-211.2-469.333-469.333-469.333c-258.133 0-469.333 211.2-469.333 469.333s211.2 469.333 469.333 469.333v0zM512 960c-283.733 0-512-228.267-512-512s228.267-512 512-512c283.733 0 512 228.267 512 512s-228.267 512-512 512v0 0zM829.867 332.8c2.133 4.267 2.133 10.667 0 17.067-2.133 2.133-2.133 4.267-4.267 6.4l-170.667 170.667c-8.533 8.533-21.333 8.533-29.867 0s-8.533-21.333 0-29.867l134.4-134.4h-524.8v234.667c0 12.8-8.533 21.333-21.333 21.333s-21.333-8.533-21.333-21.333v-256c0-12.8 8.533-21.333 21.333-21.333h546.133l-134.4-134.4c-8.533-8.533-8.533-21.333 0-29.867 4.267-4.267 10.667-6.4 14.933-6.4s10.667 2.133 14.933 6.4l170.667 170.667c2.133 2.133 4.267 4.267 4.267 6.4v0z" />
<glyph unicode="&#xe920;" glyph-name="Arrow_journey_NEG" d="M512 960c-283.733 0-512-228.267-512-512s228.267-512 512-512c283.733 0 512 228.267 512 512s-228.267 512-512 512v0zM808.533 439.467c-2.133-2.133-2.133-4.267-4.267-6.4l-64-64c-4.267-4.267-8.533-6.4-14.933-6.4s-10.667 2.133-14.933 6.4c-8.533 8.533-8.533 21.333 0 29.867l27.733 27.733h-55.467c-36.267 0-64 27.733-64 64v128c0 12.8-8.533 21.333-21.333 21.333s-21.333-8.533-21.333-21.333v-341.333c0-36.267-27.733-64-64-64s-64 27.733-64 64v341.333c0 12.8-8.533 21.333-21.333 21.333s-21.333-8.533-21.333-21.333v-341.333c0-36.267-27.733-64-64-64s-64 27.733-64 64v128c0 12.8-8.533 21.333-21.333 21.333s-21.333 8.533-21.333 21.333c0 12.8 8.533 21.333 21.333 21.333 36.267 0 64-27.733 64-64v-128c0-12.8 8.533-21.333 21.333-21.333s21.333 8.533 21.333 21.333v341.333c0 36.267 27.733 64 64 64s64-27.733 64-64v-341.333c0-12.8 8.533-21.333 21.333-21.333s21.333 8.533 21.333 21.333v341.333c0 36.267 27.733 64 64 64s64-27.733 64-64v-128c0-12.8 8.533-21.333 21.333-21.333h55.467l-27.733 27.733c-8.533 8.533-8.533 21.333 0 29.867s21.333 8.533 29.867 0l64-64c2.133-2.133 4.267-4.267 4.267-6.4 2.133-6.4 2.133-10.667 0-17.067v0z" />
<glyph unicode="&#xe921;" glyph-name="Arrow_journey_POS" d="M512 917.333c258.133 0 469.333-211.2 469.333-469.333s-211.2-469.333-469.333-469.333c-258.133 0-469.333 211.2-469.333 469.333s211.2 469.333 469.333 469.333v0zM512 960c-283.733 0-512-228.267-512-512s228.267-512 512-512c283.733 0 512 228.267 512 512s-228.267 512-512 512v0 0zM804.267 433.067l-64-64c-4.267-4.267-8.533-6.4-14.933-6.4s-10.667 2.133-14.933 6.4c-8.533 8.533-8.533 21.333 0 29.867l27.733 27.733h-55.467c-36.267 0-64 27.733-64 64v128c0 12.8-8.533 21.333-21.333 21.333s-21.333-8.533-21.333-21.333v-341.333c0-36.267-27.733-64-64-64s-64 27.733-64 64v341.333c0 12.8-8.533 21.333-21.333 21.333s-21.333-8.533-21.333-21.333v-341.333c0-36.267-27.733-64-64-64s-64 27.733-64 64v128c0 12.8-8.533 21.333-21.333 21.333s-21.333 8.533-21.333 21.333c0 12.8 8.533 21.333 21.333 21.333 36.267 0 64-27.733 64-64v-128c0-12.8 8.533-21.333 21.333-21.333s21.333 8.533 21.333 21.333v341.333c0 36.267 27.733 64 64 64s64-27.733 64-64v-341.333c0-12.8 8.533-21.333 21.333-21.333s21.333 8.533 21.333 21.333v341.333c0 36.267 27.733 64 64 64s64-27.733 64-64v-128c0-12.8 8.533-21.333 21.333-21.333h55.467l-27.733 27.733c-8.533 8.533-8.533 21.333 0 29.867s21.333 8.533 29.867 0l64-64c2.133-2.133 4.267-4.267 4.267-6.4 2.133-4.267 2.133-10.667 0-17.067 0-2.133-2.133-4.267-4.267-6.4v0z" />
<glyph unicode="&#xe922;" glyph-name="Arrow_Left_n_right_NEG" d="M512 960c-283.733 0-512-228.267-512-512s228.267-512 512-512c283.733 0 512 228.267 512 512s-228.267 512-512 512v0zM829.867 439.467c-2.133-2.133-2.133-4.267-4.267-6.4l-170.667-170.667c-4.267-4.267-8.533-6.4-14.933-6.4s-10.667 2.133-14.933 6.4c-8.533 8.533-8.533 21.333 0 29.867l134.4 134.4h-494.933l134.4-134.4c8.533-8.533 8.533-21.333 0-29.867s-21.333-8.533-29.867 0l-170.667 170.667c-2.133 2.133-4.267 4.267-4.267 6.4-2.133 4.267-2.133 10.667 0 17.067 2.133 2.133 2.133 4.267 4.267 6.4l170.667 170.667c4.267 4.267 10.667 6.4 14.933 6.4s10.667-2.133 14.933-6.4c8.533-8.533 8.533-21.333 0-29.867l-134.4-134.4h494.933l-134.4 134.4c-8.533 8.533-8.533 21.333 0 29.867s21.333 8.533 29.867 0l170.667-170.667c2.133-2.133 4.267-4.267 4.267-6.4 2.133-6.4 2.133-10.667 0-17.067v0z" />
<glyph unicode="&#xe923;" glyph-name="Arrow_Left_n_right_POS" d="M512 917.333c258.133 0 469.333-211.2 469.333-469.333s-211.2-469.333-469.333-469.333c-258.133 0-469.333 211.2-469.333 469.333s211.2 469.333 469.333 469.333v0zM512 960c-283.733 0-512-228.267-512-512s228.267-512 512-512c283.733 0 512 228.267 512 512s-228.267 512-512 512v0 0zM759.467 426.667l-134.4-134.4c-8.533-8.533-8.533-21.333 0-29.867 4.267-4.267 10.667-6.4 14.933-6.4s10.667 2.133 14.933 6.4l170.667 170.667c2.133 2.133 4.267 4.267 4.267 6.4 2.133 4.267 2.133 10.667 0 17.067-2.133 2.133-2.133 4.267-4.267 6.4l-170.667 170.667c-8.533 8.533-21.333 8.533-29.867 0s-8.533-21.333 0-29.867l134.4-134.4h-494.933l134.4 134.4c8.533 8.533 8.533 21.333 0 29.867-4.267 4.267-8.533 6.4-14.933 6.4s-10.667-2.133-14.933-6.4l-170.667-170.667c-2.133-2.133-4.267-4.267-4.267-6.4-2.133-4.267-2.133-10.667 0-17.067 2.133-2.133 2.133-4.267 4.267-6.4l170.667-170.667c8.533-8.533 21.333-8.533 29.867 0s8.533 21.333 0 29.867l-134.4 134.4h494.933z" />
<glyph unicode="&#xe924;" glyph-name="Arrow_Left_down_turn_NEG" d="M512 960c-283.733 0-512-228.267-512-512s228.267-512 512-512c283.733 0 512 228.267 512 512s-228.267 512-512 512v0zM661.333 725.333h-234.667v-524.8l134.4 134.4c8.533 8.533 21.333 8.533 29.867 0s8.533-21.333 0-29.867l-170.667-170.667c-2.133-2.133-4.267-4.267-6.4-4.267-2.133-2.133-6.4-2.133-8.533-2.133s-6.4 0-8.533 2.133c-2.133 2.133-4.267 2.133-6.4 4.267l-170.667 170.667c-8.533 8.533-8.533 21.333 0 29.867s21.333 8.533 29.867 0l134.4-134.4v546.133c0 12.8 8.533 21.333 21.333 21.333h256c12.8 0 21.333-8.533 21.333-21.333s-8.533-21.333-21.333-21.333v0z" />
<glyph unicode="&#xe925;" glyph-name="Arrow_Left_down_turn_POS" d="M512 917.333c258.133 0 469.333-211.2 469.333-469.333s-211.2-469.333-469.333-469.333c-258.133 0-469.333 211.2-469.333 469.333s211.2 469.333 469.333 469.333v0zM512 960c-283.733 0-512-228.267-512-512s228.267-512 512-512c283.733 0 512 228.267 512 512s-228.267 512-512 512v0 0zM661.333 768h-256c-12.8 0-21.333-8.533-21.333-21.333v-546.133l-134.4 134.4c-8.533 8.533-21.333 8.533-29.867 0s-8.533-21.333 0-29.867l170.667-170.667c2.133-2.133 4.267-4.267 6.4-4.267 2.133-2.133 6.4-2.133 8.533-2.133s6.4 0 8.533 2.133c2.133 2.133 4.267 2.133 6.4 4.267l170.667 170.667c8.533 8.533 8.533 21.333 0 29.867s-21.333 8.533-29.867 0l-134.4-134.4v524.8h234.667c12.8 0 21.333 8.533 21.333 21.333s-8.533 21.333-21.333 21.333v0z" />
<glyph unicode="&#xe926;" glyph-name="Arrow_Left_NEG" d="M512 960c-283.733 0-512-228.267-512-512s228.267-512 512-512c283.733 0 512 228.267 512 512s-228.267 512-512 512v0zM810.667 426.667h-546.133l134.4-134.4c8.533-8.533 8.533-21.333 0-29.867-4.267-4.267-8.533-6.4-14.933-6.4s-10.667 2.133-14.933 6.4l-170.667 170.667c-2.133 2.133-4.267 4.267-4.267 6.4-2.133 4.267-2.133 10.667 0 17.067 2.133 2.133 2.133 4.267 4.267 6.4l170.667 170.667c8.533 8.533 21.333 8.533 29.867 0s8.533-21.333 0-29.867l-134.4-134.4h546.133c12.8 0 21.333-8.533 21.333-21.333s-8.533-21.333-21.333-21.333v0z" />
<glyph unicode="&#xe927;" glyph-name="Arrow_Left_POS" d="M810.667 469.333h-546.133l134.4 134.4c8.533 8.533 8.533 21.333 0 29.867s-21.333 8.533-29.867 0l-170.667-170.667c-2.133-2.133-4.267-4.267-4.267-6.4-2.133-4.267-2.133-10.667 0-17.067 2.133-2.133 2.133-4.267 4.267-6.4l170.667-170.667c4.267-4.267 10.667-6.4 14.933-6.4s10.667 2.133 14.933 6.4c8.533 8.533 8.533 21.333 0 29.867l-134.4 134.4h546.133c12.8 0 21.333 8.533 21.333 21.333s-8.533 21.333-21.333 21.333v0zM512 917.333c258.133 0 469.333-211.2 469.333-469.333s-211.2-469.333-469.333-469.333c-258.133 0-469.333 211.2-469.333 469.333s211.2 469.333 469.333 469.333v0zM512 960c-283.733 0-512-228.267-512-512s228.267-512 512-512c283.733 0 512 228.267 512 512s-228.267 512-512 512v0 0z" />
<glyph unicode="&#xe928;" glyph-name="Arrow_Left_up_turn_NEG" d="M512 960c-283.733 0-512-228.267-512-512s228.267-512 512-512c283.733 0 512 228.267 512 512s-228.267 512-512 512v0zM661.333 128h-256c-12.8 0-21.333 8.533-21.333 21.333v546.133l-134.4-134.4c-4.267-4.267-8.533-6.4-14.933-6.4s-10.667 2.133-14.933 6.4c-8.533 8.533-8.533 21.333 0 29.867l170.667 170.667c2.133 2.133 4.267 4.267 6.4 4.267 4.267 2.133 10.667 2.133 17.067 0 2.133-2.133 4.267-2.133 6.4-4.267l170.667-170.667c8.533-8.533 8.533-21.333 0-29.867-4.267-4.267-8.533-6.4-14.933-6.4s-10.667 2.133-14.933 6.4l-134.4 134.4v-524.8h234.667c12.8 0 21.333-8.533 21.333-21.333s-8.533-21.333-21.333-21.333v0z" />
<glyph unicode="&#xe929;" glyph-name="Arrow_Left_up_turn_POS" d="M512 917.333c258.133 0 469.333-211.2 469.333-469.333s-211.2-469.333-469.333-469.333c-258.133 0-469.333 211.2-469.333 469.333s211.2 469.333 469.333 469.333v0zM512 960c-283.733 0-512-228.267-512-512s228.267-512 512-512c283.733 0 512 228.267 512 512s-228.267 512-512 512v0 0zM661.333 170.667h-234.667v524.8l134.4-134.4c4.267-4.267 10.667-6.4 14.933-6.4s10.667 2.133 14.933 6.4c8.533 8.533 8.533 21.333 0 29.867l-170.667 170.667c-2.133 2.133-4.267 4.267-6.4 4.267-4.267 2.133-10.667 2.133-17.067 0-2.133-2.133-4.267-2.133-6.4-4.267l-170.667-170.667c-8.533-8.533-8.533-21.333 0-29.867 4.267-4.267 10.667-6.4 14.933-6.4s10.667 2.133 14.933 6.4l134.4 134.4v-546.133c0-12.8 8.533-21.333 21.333-21.333h256c12.8 0 21.333 8.533 21.333 21.333s-8.533 21.333-21.333 21.333v0z" />
<glyph unicode="&#xe92a;" glyph-name="Arrow_right_down_turn_NEG" d="M512 960c-283.733 0-512-228.267-512-512s228.267-512 512-512c283.733 0 512 228.267 512 512s-228.267 512-512 512v0zM804.267 305.067l-170.667-170.667c-2.133-2.133-4.267-4.267-6.4-4.267-2.133-2.133-6.4-2.133-8.533-2.133s-6.4 0-8.533 2.133c-2.133 2.133-4.267 2.133-6.4 4.267l-170.667 170.667c-8.533 8.533-8.533 21.333 0 29.867s21.333 8.533 29.867 0l134.4-134.4v524.8h-234.667c-12.8 0-21.333 8.533-21.333 21.333s8.533 21.333 21.333 21.333h256c12.8 0 21.333-8.533 21.333-21.333v-546.133l134.4 134.4c8.533 8.533 21.333 8.533 29.867 0s8.533-21.333 0-29.867v0z" />
<glyph unicode="&#xe92b;" glyph-name="Arrow_right_down_turn_POS" d="M512 917.333c258.133 0 469.333-211.2 469.333-469.333s-211.2-469.333-469.333-469.333c-258.133 0-469.333 211.2-469.333 469.333s211.2 469.333 469.333 469.333v0zM512 960c-283.733 0-512-228.267-512-512s228.267-512 512-512c283.733 0 512 228.267 512 512s-228.267 512-512 512v0 0zM804.267 334.933c-8.533 8.533-21.333 8.533-29.867 0l-134.4-134.4v546.133c0 12.8-8.533 21.333-21.333 21.333h-256c-12.8 0-21.333-8.533-21.333-21.333s8.533-21.333 21.333-21.333h234.667v-524.8l-134.4 134.4c-8.533 8.533-21.333 8.533-29.867 0s-8.533-21.333 0-29.867l170.667-170.667c2.133-2.133 4.267-4.267 6.4-4.267 2.133-2.133 6.4-2.133 8.533-2.133s6.4 0 8.533 2.133c2.133 2.133 4.267 2.133 6.4 4.267l170.667 170.667c8.533 8.533 8.533 21.333 0 29.867v0z" />
<glyph unicode="&#xe92c;" glyph-name="Arrow_right_NEG" d="M512 960c-283.733 0-512-228.267-512-512s228.267-512 512-512c283.733 0 512 228.267 512 512s-228.267 512-512 512v0zM829.867 439.467c-2.133-2.133-2.133-4.267-4.267-6.4l-170.667-170.667c-4.267-4.267-8.533-6.4-14.933-6.4s-10.667 2.133-14.933 6.4c-8.533 8.533-8.533 21.333 0 29.867l134.4 134.4h-546.133c-12.8 0-21.333 8.533-21.333 21.333s8.533 21.333 21.333 21.333h546.133l-134.4 134.4c-8.533 8.533-8.533 21.333 0 29.867s21.333 8.533 29.867 0l170.667-170.667c2.133-2.133 4.267-4.267 4.267-6.4 2.133-6.4 2.133-10.667 0-17.067v0z" />
<glyph unicode="&#xe92d;" glyph-name="Arrow_right_POS" d="M829.867 439.467c2.133 4.267 2.133 10.667 0 17.067-2.133 2.133-2.133 4.267-4.267 6.4l-170.667 170.667c-8.533 8.533-21.333 8.533-29.867 0s-8.533-21.333 0-29.867l134.4-134.4h-546.133c-12.8 0-21.333-8.533-21.333-21.333s8.533-21.333 21.333-21.333h546.133l-134.4-134.4c-8.533-8.533-8.533-21.333 0-29.867 4.267-4.267 10.667-6.4 14.933-6.4s10.667 2.133 14.933 6.4l170.667 170.667c2.133 2.133 4.267 4.267 4.267 6.4v0zM512 917.333c258.133 0 469.333-211.2 469.333-469.333s-211.2-469.333-469.333-469.333c-258.133 0-469.333 211.2-469.333 469.333s211.2 469.333 469.333 469.333v0zM512 960c-283.733 0-512-228.267-512-512s228.267-512 512-512c283.733 0 512 228.267 512 512s-228.267 512-512 512v0 0z" />
<glyph unicode="&#xe92e;" glyph-name="Arrow_right_up_turn_NEG" d="M512 960c-283.733 0-512-228.267-512-512s228.267-512 512-512c283.733 0 512 228.267 512 512s-228.267 512-512 512v0zM804.267 561.067c-4.267-4.267-8.533-6.4-14.933-6.4s-10.667 2.133-14.933 6.4l-134.4 134.4v-546.133c0-12.8-8.533-21.333-21.333-21.333h-256c-12.8 0-21.333 8.533-21.333 21.333s8.533 21.333 21.333 21.333h234.667v524.8l-134.4-134.4c-4.267-4.267-8.533-6.4-14.933-6.4s-10.667 2.133-14.933 6.4c-8.533 8.533-8.533 21.333 0 29.867l170.667 170.667c2.133 2.133 4.267 4.267 6.4 4.267 4.267 2.133 10.667 2.133 17.067 0 2.133-2.133 4.267-2.133 6.4-4.267l170.667-170.667c8.533-8.533 8.533-21.333 0-29.867v0z" />
<glyph unicode="&#xe92f;" glyph-name="Arrow_right_up_turn_POS" d="M512 917.333c258.133 0 469.333-211.2 469.333-469.333s-211.2-469.333-469.333-469.333c-258.133 0-469.333 211.2-469.333 469.333s211.2 469.333 469.333 469.333v0zM512 960c-283.733 0-512-228.267-512-512s228.267-512 512-512c283.733 0 512 228.267 512 512s-228.267 512-512 512v0 0zM804.267 590.933l-170.667 170.667c-2.133 2.133-4.267 4.267-6.4 4.267-4.267 2.133-10.667 2.133-17.067 0-2.133-2.133-4.267-2.133-6.4-4.267l-170.667-170.667c-8.533-8.533-8.533-21.333 0-29.867 4.267-4.267 10.667-6.4 14.933-6.4s10.667 2.133 14.933 6.4l134.4 134.4v-524.8h-234.667c-12.8 0-21.333-8.533-21.333-21.333s8.533-21.333 21.333-21.333h256c12.8 0 21.333 8.533 21.333 21.333v546.133l134.4-134.4c4.267-4.267 10.667-6.4 14.933-6.4s10.667 2.133 14.933 6.4c8.533 8.533 8.533 21.333 0 29.867v0z" />
<glyph unicode="&#xe930;" glyph-name="Arrow_up_n_down_NEG" d="M512 960c-283.733 0-512-228.267-512-512s228.267-512 512-512c283.733 0 512 228.267 512 512s-228.267 512-512 512v0zM667.733 334.933c8.533 8.533 21.333 8.533 29.867 0s8.533-21.333 0-29.867l-170.667-170.667c-2.133-2.133-4.267-4.267-6.4-4.267-4.267-2.133-10.667-2.133-17.067 0-2.133 2.133-4.267 2.133-6.4 4.267l-170.667 170.667c-4.267 4.267-6.4 8.533-6.4 14.933s2.133 10.667 6.4 14.933c8.533 8.533 21.333 8.533 29.867 0l134.4-134.4v494.933l-134.4-134.4c-8.533-8.533-21.333-8.533-29.867 0s-8.533 21.333 0 29.867l170.667 170.667c2.133 2.133 4.267 4.267 6.4 4.267 4.267 2.133 10.667 2.133 17.067 0 2.133-2.133 4.267-2.133 6.4-4.267l170.667-170.667c4.267-4.267 6.4-10.667 6.4-14.933s-2.133-10.667-6.4-14.933c-8.533-8.533-21.333-8.533-29.867 0l-134.4 134.4v-494.933l134.4 134.4z" />
<glyph unicode="&#xe931;" glyph-name="Arrow_up_n_down_POS" d="M512 917.333c258.133 0 469.333-211.2 469.333-469.333s-211.2-469.333-469.333-469.333c-258.133 0-469.333 211.2-469.333 469.333s211.2 469.333 469.333 469.333v0zM512 960c-283.733 0-512-228.267-512-512s228.267-512 512-512c283.733 0 512 228.267 512 512s-228.267 512-512 512v0 0zM533.333 695.467l134.4-134.4c8.533-8.533 21.333-8.533 29.867 0 4.267 4.267 6.4 10.667 6.4 14.933s-2.133 10.667-6.4 14.933l-170.667 170.667c-2.133 2.133-4.267 4.267-6.4 4.267-4.267 2.133-10.667 2.133-17.067 0-2.133-2.133-4.267-2.133-6.4-4.267l-170.667-170.667c-8.533-8.533-8.533-21.333 0-29.867s21.333-8.533 29.867 0l134.4 134.4v-494.933l-134.4 134.4c-8.533 8.533-21.333 8.533-29.867 0-4.267-4.267-6.4-8.533-6.4-14.933s2.133-10.667 6.4-14.933l170.667-170.667c2.133-2.133 4.267-4.267 6.4-4.267 4.267-2.133 10.667-2.133 17.067 0 2.133 2.133 4.267 2.133 6.4 4.267l170.667 170.667c8.533 8.533 8.533 21.333 0 29.867s-21.333 8.533-29.867 0l-134.4-134.4v494.933z" />
<glyph unicode="&#xe932;" glyph-name="Arrow_up_Left_turn_NEG" d="M512 960c-283.733 0-512-228.267-512-512s228.267-512 512-512c283.733 0 512 228.267 512 512s-228.267 512-512 512v0zM832 298.667c0-12.8-8.533-21.333-21.333-21.333s-21.333 8.533-21.333 21.333v234.667h-524.8l134.4-134.4c8.533-8.533 8.533-21.333 0-29.867-4.267-4.267-8.533-6.4-14.933-6.4s-10.667 2.133-14.933 6.4l-170.667 170.667c-2.133 2.133-4.267 4.267-4.267 6.4-2.133 4.267-2.133 10.667 0 17.067 2.133 2.133 2.133 4.267 4.267 6.4l170.667 170.667c8.533 8.533 21.333 8.533 29.867 0s8.533-21.333 0-29.867l-134.4-134.4h546.133c12.8 0 21.333-8.533 21.333-21.333v-256z" />
<glyph unicode="&#xe933;" glyph-name="Arrow_up_Left_turn_POS" d="M512 917.333c258.133 0 469.333-211.2 469.333-469.333s-211.2-469.333-469.333-469.333c-258.133 0-469.333 211.2-469.333 469.333s211.2 469.333 469.333 469.333v0zM512 960c-283.733 0-512-228.267-512-512s228.267-512 512-512c283.733 0 512 228.267 512 512s-228.267 512-512 512v0 0zM810.667 576h-546.133l134.4 134.4c8.533 8.533 8.533 21.333 0 29.867s-21.333 8.533-29.867 0l-170.667-170.667c-2.133-2.133-4.267-4.267-4.267-6.4-2.133-4.267-2.133-10.667 0-17.067 2.133-2.133 2.133-4.267 4.267-6.4l170.667-170.667c4.267-4.267 10.667-6.4 14.933-6.4s10.667 2.133 14.933 6.4c8.533 8.533 8.533 21.333 0 29.867l-134.4 134.4h524.8v-234.667c0-12.8 8.533-21.333 21.333-21.333s21.333 8.533 21.333 21.333v256c0 12.8-8.533 21.333-21.333 21.333v0z" />
<glyph unicode="&#xe934;" glyph-name="Arrow_up_NEG" d="M512 960c-283.733 0-512-228.267-512-512s228.267-512 512-512c283.733 0 512 228.267 512 512s-228.267 512-512 512v0zM697.6 561.067c-4.267-4.267-8.533-6.4-14.933-6.4s-10.667 2.133-14.933 6.4l-134.4 134.4v-546.133c0-12.8-8.533-21.333-21.333-21.333s-21.333 8.533-21.333 21.333v546.133l-134.4-134.4c-4.267-4.267-8.533-6.4-14.933-6.4s-10.667 2.133-14.933 6.4c-8.533 8.533-8.533 21.333 0 29.867l170.667 170.667c2.133 2.133 4.267 4.267 6.4 4.267 4.267 2.133 10.667 2.133 17.067 0 2.133-2.133 4.267-2.133 6.4-4.267l170.667-170.667c8.533-8.533 8.533-21.333 0-29.867v0z" />
<glyph unicode="&#xe935;" glyph-name="Arrow_up_POS" d="M512 917.333c258.133 0 469.333-211.2 469.333-469.333s-211.2-469.333-469.333-469.333c-258.133 0-469.333 211.2-469.333 469.333s211.2 469.333 469.333 469.333v0zM512 960c-283.733 0-512-228.267-512-512s228.267-512 512-512c283.733 0 512 228.267 512 512s-228.267 512-512 512v0 0zM697.6 590.933l-170.667 170.667c-2.133 2.133-4.267 4.267-6.4 4.267-4.267 2.133-10.667 2.133-17.067 0-2.133-2.133-4.267-2.133-6.4-4.267l-170.667-170.667c-8.533-8.533-8.533-21.333 0-29.867 4.267-4.267 10.667-6.4 14.933-6.4s10.667 2.133 14.933 6.4l134.4 134.4v-546.133c0-12.8 8.533-21.333 21.333-21.333s21.333 8.533 21.333 21.333v546.133l134.4-134.4c4.267-4.267 10.667-6.4 14.933-6.4s10.667 2.133 14.933 6.4c8.533 8.533 8.533 21.333 0 29.867v0z" />
<glyph unicode="&#xe936;" glyph-name="Arrow_up_right_turn_NEG" d="M512 960c-283.733 0-512-228.267-512-512s228.267-512 512-512c283.733 0 512 228.267 512 512s-228.267 512-512 512v0zM829.867 546.133c-2.133-2.133-2.133-4.267-4.267-6.4l-170.667-170.667c-4.267-4.267-8.533-6.4-14.933-6.4s-10.667 2.133-14.933 6.4c-8.533 8.533-8.533 21.333 0 29.867l134.4 134.4h-524.8v-234.667c0-12.8-8.533-21.333-21.333-21.333s-21.333 8.533-21.333 21.333v256c0 12.8 8.533 21.333 21.333 21.333h546.133l-134.4 134.4c-8.533 8.533-8.533 21.333 0 29.867s21.333 8.533 29.867 0l170.667-170.667c2.133-2.133 4.267-4.267 4.267-6.4 2.133-6.4 2.133-10.667 0-17.067v0z" />
<glyph unicode="&#xe937;" glyph-name="Arrow_up_right_turn_POS" d="M512 917.333c258.133 0 469.333-211.2 469.333-469.333s-211.2-469.333-469.333-469.333c-258.133 0-469.333 211.2-469.333 469.333s211.2 469.333 469.333 469.333v0zM512 960c-283.733 0-512-228.267-512-512s228.267-512 512-512c283.733 0 512 228.267 512 512s-228.267 512-512 512v0 0zM829.867 546.133c2.133 4.267 2.133 10.667 0 17.067-2.133 2.133-2.133 4.267-4.267 6.4l-170.667 170.667c-8.533 8.533-21.333 8.533-29.867 0s-8.533-21.333 0-29.867l134.4-134.4h-546.133c-12.8 0-21.333-8.533-21.333-21.333v-256c0-12.8 8.533-21.333 21.333-21.333s21.333 8.533 21.333 21.333v234.667h524.8l-134.4-134.4c-8.533-8.533-8.533-21.333 0-29.867 4.267-4.267 10.667-6.4 14.933-6.4s10.667 2.133 14.933 6.4l170.667 170.667c2.133 2.133 4.267 4.267 4.267 6.4v0z" />
<glyph unicode="&#xe938;" glyph-name="Asterisk_NEG" d="M512 960c-283.733 0-512-228.267-512-512s228.267-512 512-512c283.733 0 512 228.267 512 512s-228.267 512-512 512v0zM789.333 426.667h-226.133l155.733-155.733c8.533-8.533 8.533-21.333 0-29.867-4.267-4.267-8.533-6.4-14.933-6.4s-10.667 2.133-14.933 6.4l-155.733 155.733v-226.133c0-12.8-8.533-21.333-21.333-21.333s-21.333 8.533-21.333 21.333v226.133l-155.733-155.733c-4.267-4.267-8.533-6.4-14.933-6.4s-10.667 2.133-14.933 6.4c-8.533 8.533-8.533 21.333 0 29.867l155.733 155.733h-226.133c-12.8 0-21.333 8.533-21.333 21.333s8.533 21.333 21.333 21.333h226.133l-155.733 155.733c-8.533 8.533-8.533 21.333 0 29.867s21.333 8.533 29.867 0l155.733-155.733v226.133c0 12.8 8.533 21.333 21.333 21.333s21.333-8.533 21.333-21.333v-226.133l155.733 155.733c8.533 8.533 21.333 8.533 29.867 0s8.533-21.333 0-29.867l-155.733-155.733h226.133c12.8 0 21.333-8.533 21.333-21.333s-8.533-21.333-21.333-21.333v0z" />
<glyph unicode="&#xe939;" glyph-name="Asterisk_POS" d="M810.667 448c0-12.8-8.533-21.333-21.333-21.333h-226.133l155.733-155.733c8.533-8.533 8.533-21.333 0-29.867-4.267-4.267-8.533-6.4-14.933-6.4s-10.667 2.133-14.933 6.4l-155.733 155.733v-226.133c0-12.8-8.533-21.333-21.333-21.333s-21.333 8.533-21.333 21.333v226.133l-155.733-155.733c-4.267-4.267-8.533-6.4-14.933-6.4s-10.667 2.133-14.933 6.4c-8.533 8.533-8.533 21.333 0 29.867l155.733 155.733h-226.133c-12.8 0-21.333 8.533-21.333 21.333s8.533 21.333 21.333 21.333h226.133l-155.733 155.733c-8.533 8.533-8.533 21.333 0 29.867s21.333 8.533 29.867 0l155.733-155.733v226.133c0 12.8 8.533 21.333 21.333 21.333s21.333-8.533 21.333-21.333v-226.133l155.733 155.733c8.533 8.533 21.333 8.533 29.867 0s8.533-21.333 0-29.867l-155.733-155.733h226.133c12.8 0 21.333-8.533 21.333-21.333v0zM512 917.333c258.133 0 469.333-211.2 469.333-469.333s-211.2-469.333-469.333-469.333c-258.133 0-469.333 211.2-469.333 469.333s211.2 469.333 469.333 469.333v0zM512 960c-283.733 0-512-228.267-512-512s228.267-512 512-512c283.733 0 512 228.267 512 512s-228.267 512-512 512v0 0z" />
<glyph unicode="&#xe93a;" glyph-name="Audio_1_NEG" d="M512 960c-283.733 0-512-228.267-512-512s228.267-512 512-512c283.733 0 512 228.267 512 512s-228.267 512-512 512v0zM277.333 213.333h-42.667c-12.8 0-21.333 8.533-21.333 21.333s8.533 21.333 21.333 21.333h42.667c12.8 0 21.333-8.533 21.333-21.333s-8.533-21.333-21.333-21.333v0zM277.333 298.667h-42.667c-12.8 0-21.333 8.533-21.333 21.333s8.533 21.333 21.333 21.333h42.667c12.8 0 21.333-8.533 21.333-21.333s-8.533-21.333-21.333-21.333v0zM277.333 384h-42.667c-12.8 0-21.333 8.533-21.333 21.333s8.533 21.333 21.333 21.333h42.667c12.8 0 21.333-8.533 21.333-21.333s-8.533-21.333-21.333-21.333v0zM277.333 469.333h-42.667c-12.8 0-21.333 8.533-21.333 21.333s8.533 21.333 21.333 21.333h42.667c12.8 0 21.333-8.533 21.333-21.333s-8.533-21.333-21.333-21.333v0zM448 213.333h-42.667c-12.8 0-21.333 8.533-21.333 21.333s8.533 21.333 21.333 21.333h42.667c12.8 0 21.333-8.533 21.333-21.333s-8.533-21.333-21.333-21.333v0zM448 298.667h-42.667c-12.8 0-21.333 8.533-21.333 21.333s8.533 21.333 21.333 21.333h42.667c12.8 0 21.333-8.533 21.333-21.333s-8.533-21.333-21.333-21.333v0zM448 384h-42.667c-12.8 0-21.333 8.533-21.333 21.333s8.533 21.333 21.333 21.333h42.667c12.8 0 21.333-8.533 21.333-21.333s-8.533-21.333-21.333-21.333v0zM618.667 213.333h-42.667c-12.8 0-21.333 8.533-21.333 21.333s8.533 21.333 21.333 21.333h42.667c12.8 0 21.333-8.533 21.333-21.333s-8.533-21.333-21.333-21.333v0zM618.667 298.667h-42.667c-12.8 0-21.333 8.533-21.333 21.333s8.533 21.333 21.333 21.333h42.667c12.8 0 21.333-8.533 21.333-21.333s-8.533-21.333-21.333-21.333v0zM618.667 384h-42.667c-12.8 0-21.333 8.533-21.333 21.333s8.533 21.333 21.333 21.333h42.667c12.8 0 21.333-8.533 21.333-21.333s-8.533-21.333-21.333-21.333v0zM618.667 469.333h-42.667c-12.8 0-21.333 8.533-21.333 21.333s8.533 21.333 21.333 21.333h42.667c12.8 0 21.333-8.533 21.333-21.333s-8.533-21.333-21.333-21.333v0zM618.667 554.667h-42.667c-12.8 0-21.333 8.533-21.333 21.333s8.533 21.333 21.333 21.333h42.667c12.8 0 21.333-8.533 21.333-21.333s-8.533-21.333-21.333-21.333v0zM618.667 640h-42.667c-12.8 0-21.333 8.533-21.333 21.333s8.533 21.333 21.333 21.333h42.667c12.8 0 21.333-8.533 21.333-21.333s-8.533-21.333-21.333-21.333v0zM618.667 725.333h-42.667c-12.8 0-21.333 8.533-21.333 21.333s8.533 21.333 21.333 21.333h42.667c12.8 0 21.333-8.533 21.333-21.333s-8.533-21.333-21.333-21.333v0zM789.333 213.333h-42.667c-12.8 0-21.333 8.533-21.333 21.333s8.533 21.333 21.333 21.333h42.667c12.8 0 21.333-8.533 21.333-21.333s-8.533-21.333-21.333-21.333v0zM789.333 298.667h-42.667c-12.8 0-21.333 8.533-21.333 21.333s8.533 21.333 21.333 21.333h42.667c12.8 0 21.333-8.533 21.333-21.333s-8.533-21.333-21.333-21.333v0zM789.333 384h-42.667c-12.8 0-21.333 8.533-21.333 21.333s8.533 21.333 21.333 21.333h42.667c12.8 0 21.333-8.533 21.333-21.333s-8.533-21.333-21.333-21.333v0zM789.333 469.333h-42.667c-12.8 0-21.333 8.533-21.333 21.333s8.533 21.333 21.333 21.333h42.667c12.8 0 21.333-8.533 21.333-21.333s-8.533-21.333-21.333-21.333v0zM789.333 554.667h-42.667c-12.8 0-21.333 8.533-21.333 21.333s8.533 21.333 21.333 21.333h42.667c12.8 0 21.333-8.533 21.333-21.333s-8.533-21.333-21.333-21.333v0z" />
<glyph unicode="&#xe93b;" glyph-name="Audio_1_POS" d="M298.667 490.667c0-12.8-8.533-21.333-21.333-21.333h-42.667c-12.8 0-21.333 8.533-21.333 21.333s8.533 21.333 21.333 21.333h42.667c12.8 0 21.333-8.533 21.333-21.333v0zM277.333 426.667h-42.667c-12.8 0-21.333-8.533-21.333-21.333s8.533-21.333 21.333-21.333h42.667c12.8 0 21.333 8.533 21.333 21.333s-8.533 21.333-21.333 21.333v0zM277.333 341.333h-42.667c-12.8 0-21.333-8.533-21.333-21.333s8.533-21.333 21.333-21.333h42.667c12.8 0 21.333 8.533 21.333 21.333s-8.533 21.333-21.333 21.333v0zM277.333 256h-42.667c-12.8 0-21.333-8.533-21.333-21.333s8.533-21.333 21.333-21.333h42.667c12.8 0 21.333 8.533 21.333 21.333s-8.533 21.333-21.333 21.333v0zM448 426.667h-42.667c-12.8 0-21.333-8.533-21.333-21.333s8.533-21.333 21.333-21.333h42.667c12.8 0 21.333 8.533 21.333 21.333s-8.533 21.333-21.333 21.333v0zM448 341.333h-42.667c-12.8 0-21.333-8.533-21.333-21.333s8.533-21.333 21.333-21.333h42.667c12.8 0 21.333 8.533 21.333 21.333s-8.533 21.333-21.333 21.333v0zM448 256h-42.667c-12.8 0-21.333-8.533-21.333-21.333s8.533-21.333 21.333-21.333h42.667c12.8 0 21.333 8.533 21.333 21.333s-8.533 21.333-21.333 21.333v0zM618.667 426.667h-42.667c-12.8 0-21.333-8.533-21.333-21.333s8.533-21.333 21.333-21.333h42.667c12.8 0 21.333 8.533 21.333 21.333s-8.533 21.333-21.333 21.333v0zM618.667 341.333h-42.667c-12.8 0-21.333-8.533-21.333-21.333s8.533-21.333 21.333-21.333h42.667c12.8 0 21.333 8.533 21.333 21.333s-8.533 21.333-21.333 21.333v0zM618.667 256h-42.667c-12.8 0-21.333-8.533-21.333-21.333s8.533-21.333 21.333-21.333h42.667c12.8 0 21.333 8.533 21.333 21.333s-8.533 21.333-21.333 21.333v0zM618.667 682.667h-42.667c-12.8 0-21.333-8.533-21.333-21.333s8.533-21.333 21.333-21.333h42.667c12.8 0 21.333 8.533 21.333 21.333s-8.533 21.333-21.333 21.333v0zM618.667 597.333h-42.667c-12.8 0-21.333-8.533-21.333-21.333s8.533-21.333 21.333-21.333h42.667c12.8 0 21.333 8.533 21.333 21.333s-8.533 21.333-21.333 21.333v0zM618.667 512h-42.667c-12.8 0-21.333-8.533-21.333-21.333s8.533-21.333 21.333-21.333h42.667c12.8 0 21.333 8.533 21.333 21.333s-8.533 21.333-21.333 21.333v0zM618.667 768h-42.667c-12.8 0-21.333-8.533-21.333-21.333s8.533-21.333 21.333-21.333h42.667c12.8 0 21.333 8.533 21.333 21.333s-8.533 21.333-21.333 21.333v0zM789.333 426.667h-42.667c-12.8 0-21.333-8.533-21.333-21.333s8.533-21.333 21.333-21.333h42.667c12.8 0 21.333 8.533 21.333 21.333s-8.533 21.333-21.333 21.333v0zM789.333 341.333h-42.667c-12.8 0-21.333-8.533-21.333-21.333s8.533-21.333 21.333-21.333h42.667c12.8 0 21.333 8.533 21.333 21.333s-8.533 21.333-21.333 21.333v0zM789.333 256h-42.667c-12.8 0-21.333-8.533-21.333-21.333s8.533-21.333 21.333-21.333h42.667c12.8 0 21.333 8.533 21.333 21.333s-8.533 21.333-21.333 21.333v0zM746.667 554.667h42.667c12.8 0 21.333 8.533 21.333 21.333s-8.533 21.333-21.333 21.333h-42.667c-12.8 0-21.333-8.533-21.333-21.333s8.533-21.333 21.333-21.333v0zM789.333 512h-42.667c-12.8 0-21.333-8.533-21.333-21.333s8.533-21.333 21.333-21.333h42.667c12.8 0 21.333 8.533 21.333 21.333s-8.533 21.333-21.333 21.333v0zM512 917.333c258.133 0 469.333-211.2 469.333-469.333s-211.2-469.333-469.333-469.333c-258.133 0-469.333 211.2-469.333 469.333s211.2 469.333 469.333 469.333v0zM512 960c-283.733 0-512-228.267-512-512s228.267-512 512-512c283.733 0 512 228.267 512 512s-228.267 512-512 512v0 0z" />
<glyph unicode="&#xe93c;" glyph-name="Audio_2_NEG" d="M512 960c-283.733 0-512-228.267-512-512s228.267-512 512-512c283.733 0 512 228.267 512 512s-228.267 512-512 512v0zM234.667 405.333c0-12.8-8.533-21.333-21.333-21.333s-21.333 8.533-21.333 21.333v85.333c0 12.8 8.533 21.333 21.333 21.333s21.333-8.533 21.333-21.333v-85.333zM320 320c0-12.8-8.533-21.333-21.333-21.333s-21.333 8.533-21.333 21.333v256c0 12.8 8.533 21.333 21.333 21.333s21.333-8.533 21.333-21.333v-256zM405.333 256c0-12.8-8.533-21.333-21.333-21.333s-21.333 8.533-21.333 21.333v384c0 12.8 8.533 21.333 21.333 21.333s21.333-8.533 21.333-21.333v-384zM490.667 341.333c0-12.8-8.533-21.333-21.333-21.333s-21.333 8.533-21.333 21.333v213.333c0 12.8 8.533 21.333 21.333 21.333s21.333-8.533 21.333-21.333v-213.333zM576 234.667c0-12.8-8.533-21.333-21.333-21.333s-21.333 8.533-21.333 21.333v426.667c0 12.8 8.533 21.333 21.333 21.333s21.333-8.533 21.333-21.333v-426.667zM661.333 320c0-12.8-8.533-21.333-21.333-21.333s-21.333 8.533-21.333 21.333v256c0 12.8 8.533 21.333 21.333 21.333s21.333-8.533 21.333-21.333v-256zM746.667 362.667c0-12.8-8.533-21.333-21.333-21.333s-21.333 8.533-21.333 21.333v170.667c0 12.8 8.533 21.333 21.333 21.333s21.333-8.533 21.333-21.333v-170.667zM832 426.667c0-12.8-8.533-21.333-21.333-21.333s-21.333 8.533-21.333 21.333v42.667c0 12.8 8.533 21.333 21.333 21.333s21.333-8.533 21.333-21.333v-42.667z" />
<glyph unicode="&#xe93d;" glyph-name="Audio_2_POS" d="M576 661.333v-426.667c0-12.8-8.533-21.333-21.333-21.333s-21.333 8.533-21.333 21.333v426.667c0 12.8 8.533 21.333 21.333 21.333s21.333-8.533 21.333-21.333v0zM469.333 576c-12.8 0-21.333-8.533-21.333-21.333v-213.333c0-12.8 8.533-21.333 21.333-21.333s21.333 8.533 21.333 21.333v213.333c0 12.8-8.533 21.333-21.333 21.333v0zM384 661.333c-12.8 0-21.333-8.533-21.333-21.333v-384c0-12.8 8.533-21.333 21.333-21.333s21.333 8.533 21.333 21.333v384c0 12.8-8.533 21.333-21.333 21.333v0zM298.667 597.333c-12.8 0-21.333-8.533-21.333-21.333v-256c0-12.8 8.533-21.333 21.333-21.333s21.333 8.533 21.333 21.333v256c0 12.8-8.533 21.333-21.333 21.333v0zM213.333 512c-12.8 0-21.333-8.533-21.333-21.333v-85.333c0-12.8 8.533-21.333 21.333-21.333s21.333 8.533 21.333 21.333v85.333c0 12.8-8.533 21.333-21.333 21.333v0zM810.667 490.667c-12.8 0-21.333-8.533-21.333-21.333v-42.667c0-12.8 8.533-21.333 21.333-21.333s21.333 8.533 21.333 21.333v42.667c0 12.8-8.533 21.333-21.333 21.333v0zM725.333 554.667c-12.8 0-21.333-8.533-21.333-21.333v-170.667c0-12.8 8.533-21.333 21.333-21.333s21.333 8.533 21.333 21.333v170.667c0 12.8-8.533 21.333-21.333 21.333v0zM640 597.333c-12.8 0-21.333-8.533-21.333-21.333v-256c0-12.8 8.533-21.333 21.333-21.333s21.333 8.533 21.333 21.333v256c0 12.8-8.533 21.333-21.333 21.333v0zM512 917.333c258.133 0 469.333-211.2 469.333-469.333s-211.2-469.333-469.333-469.333c-258.133 0-469.333 211.2-469.333 469.333s211.2 469.333 469.333 469.333v0zM512 960c-283.733 0-512-228.267-512-512s228.267-512 512-512c283.733 0 512 228.267 512 512s-228.267 512-512 512v0 0z" />
<glyph unicode="&#xe93e;" glyph-name="Axe_NEG" d="M533.333 456.533l42.667 8.533v-273.067c0-12.8-8.533-21.333-21.333-21.333s-21.333 8.533-21.333 21.333v264.533zM576 704c0 12.8-8.533 21.333-21.333 21.333s-21.333-8.533-21.333-21.333v-8.533l42.667-8.533v17.067zM309.333 450.133l352 78.933v93.867l-349.867 78.933c-17.067-38.4-51.2-147.2-2.133-251.733v0zM1024 448c0-283.733-228.267-512-512-512s-512 228.267-512 512c0 283.733 228.267 512 512 512s512-228.267 512-512v0zM704 640c0 10.667-6.4 19.2-17.067 21.333l-68.267 14.933v27.733c0 36.267-27.733 64-64 64-34.133 0-64-27.733-64-64l-187.733 42.667c-8.533 2.133-19.2-2.133-23.467-10.667-4.267-6.4-85.333-164.267 0-320 4.267-6.4 10.667-10.667 19.2-10.667h4.267l187.733 42.667v-256c0-36.267 27.733-64 64-64s64 27.733 64 64v283.733l68.267 14.933c10.667 2.133 17.067 10.667 17.067 21.333v128z" />
<glyph unicode="&#xe93f;" glyph-name="Axe_POS" d="M512 917.333c258.133 0 469.333-211.2 469.333-469.333s-211.2-469.333-469.333-469.333c-258.133 0-469.333 211.2-469.333 469.333s211.2 469.333 469.333 469.333v0zM512 960c-283.733 0-512-228.267-512-512s228.267-512 512-512c283.733 0 512 228.267 512 512s-228.267 512-512 512v0 0zM686.933 661.333l-68.267 14.933v27.733c0 36.267-27.733 64-64 64-34.133 0-64-27.733-64-64l-187.733 42.667c-8.533 2.133-19.2-2.133-23.467-10.667-4.267-6.4-85.333-164.267 0-320 4.267-6.4 10.667-10.667 19.2-10.667h4.267l187.733 42.667v-256c0-36.267 27.733-64 64-64s64 27.733 64 64v283.733l68.267 14.933c10.667 2.133 17.067 10.667 17.067 21.333v128c0 10.667-6.4 19.2-17.067 21.333v0zM533.333 704c0 12.8 8.533 21.333 21.333 21.333s21.333-8.533 21.333-21.333v-19.2l-42.667 8.533v10.667zM576 192c0-12.8-8.533-21.333-21.333-21.333s-21.333 8.533-21.333 21.333v264.533l42.667 8.533v-273.067zM661.333 529.067l-352-78.933c-51.2 104.533-14.933 211.2 0 249.6l352-76.8v-93.867z" />
<glyph unicode="&#xe940;" glyph-name="Baby_bottle_NEG" d="M384 554.667h256v-42.667h-256v42.667zM546.133 654.933c-8.533 4.267-12.8 10.667-12.8 19.2v29.867c0 12.8-8.533 21.333-21.333 21.333s-21.333-8.533-21.333-21.333v-29.867c0-8.533-4.267-17.067-12.8-19.2-23.467-10.667-42.667-32-49.067-57.6h164.267c-4.267 25.6-23.467 46.933-46.933 57.6v0zM426.667 170.667h170.667v42.667h-64c-12.8 0-21.333 8.533-21.333 21.333s8.533 21.333 21.333 21.333h64v42.667h-64c-12.8 0-21.333 8.533-21.333 21.333s8.533 21.333 21.333 21.333h64v42.667h-64c-12.8 0-21.333 8.533-21.333 21.333s8.533 21.333 21.333 21.333h64v42.667h-170.667v-298.667zM1024 448c0-283.733-228.267-512-512-512s-512 228.267-512 512c0 283.733 228.267 512 512 512s512-228.267 512-512v0zM682.667 576c0 12.8-8.533 21.333-21.333 21.333h-23.467c-6.4 38.4-29.867 70.4-61.867 89.6v17.067c0 36.267-27.733 64-64 64s-64-27.733-64-64v-17.067c-34.133-19.2-55.467-51.2-61.867-89.6h-23.467c-12.8 0-21.333-8.533-21.333-21.333v-85.333c0-12.8 8.533-21.333 21.333-21.333h21.333v-320c0-12.8 8.533-21.333 21.333-21.333h213.333c12.8 0 21.333 8.533 21.333 21.333v320h21.333c12.8 0 21.333 8.533 21.333 21.333v85.333z" />
<glyph unicode="&#xe941;" glyph-name="Baby_bottle_POS" d="M512 917.333c258.133 0 469.333-211.2 469.333-469.333s-211.2-469.333-469.333-469.333c-258.133 0-469.333 211.2-469.333 469.333s211.2 469.333 469.333 469.333v0zM512 960c-283.733 0-512-228.267-512-512s228.267-512 512-512c283.733 0 512 228.267 512 512s-228.267 512-512 512v0 0zM661.333 597.333h-23.467c-6.4 38.4-29.867 70.4-61.867 89.6v17.067c0 36.267-27.733 64-64 64s-64-27.733-64-64v-17.067c-34.133-19.2-55.467-51.2-61.867-89.6h-23.467c-12.8 0-21.333-8.533-21.333-21.333v-85.333c0-12.8 8.533-21.333 21.333-21.333h21.333v-320c0-12.8 8.533-21.333 21.333-21.333h213.333c12.8 0 21.333 8.533 21.333 21.333v320h21.333c12.8 0 21.333 8.533 21.333 21.333v85.333c0 12.8-8.533 21.333-21.333 21.333v0zM477.867 654.933c8.533 4.267 12.8 10.667 12.8 19.2v29.867c0 12.8 8.533 21.333 21.333 21.333s21.333-8.533 21.333-21.333v-29.867c0-8.533 4.267-17.067 12.8-19.2 23.467-10.667 42.667-32 49.067-57.6h-164.267c4.267 25.6 23.467 46.933 46.933 57.6v0zM597.333 426.667h-64c-12.8 0-21.333-8.533-21.333-21.333s8.533-21.333 21.333-21.333h64v-42.667h-64c-12.8 0-21.333-8.533-21.333-21.333s8.533-21.333 21.333-21.333h64v-42.667h-64c-12.8 0-21.333-8.533-21.333-21.333s8.533-21.333 21.333-21.333h64v-42.667h-170.667v298.667h170.667v-42.667zM640 512h-256v42.667h256v-42.667z" />
<glyph unicode="&#xe942;" glyph-name="Baby_NEG" d="M576 490.667v-64h-128v64c0 12.8 6.4 42.667 64 42.667s64-29.867 64-42.667v0zM448 371.2l51.2-51.2h25.6l51.2 51.2v12.8h-128v-12.8zM512 640c23.467 0 42.667 19.2 42.667 42.667s-19.2 42.667-42.667 42.667c-23.467 0-42.667-19.2-42.667-42.667s19.2-42.667 42.667-42.667v0zM1024 448c0-283.733-228.267-512-512-512s-512 228.267-512 512c0 283.733 228.267 512 512 512s512-228.267 512-512v0zM426.667 682.667c0-46.933 38.4-85.333 85.333-85.333s85.333 38.4 85.333 85.333c0 46.933-38.4 85.333-85.333 85.333s-85.333-38.4-85.333-85.333v0zM716.8 443.733l-106.667 85.333c0 0-2.133 0-2.133 2.133-12.8 23.467-42.667 44.8-96 44.8s-83.2-21.333-96-46.933c0 0-2.133 0-2.133-2.133l-106.667-85.333c-8.533-6.4-10.667-21.333-4.267-29.867 4.267-4.267 10.667-8.533 17.067-8.533 4.267 0 8.533 2.133 12.8 4.267l72.533 57.6v-102.4c0-6.4 2.133-10.667 6.4-14.933l17.067-17.067-40.533-61.867c-2.133-2.133-2.133-4.267-2.133-8.533v-8.533l21.333-106.667c2.133-10.667 10.667-17.067 21.333-17.067h4.267c10.667 2.133 19.2 12.8 17.067 25.6l-19.2 98.133 32 46.933 14.933-14.933c4.267-4.267 8.533-6.4 14.933-6.4h42.667c6.4 0 10.667 2.133 14.933 6.4l14.933 14.933 32-46.933-21.333-98.133c-2.133-10.667 4.267-23.467 17.067-25.6h4.267c10.667 0 19.2 6.4 21.333 17.067l21.333 106.667v8.533c0 2.133-2.133 6.4-2.133 8.533l-40.533 61.867 17.067 17.067c4.267 4.267 6.4 8.533 6.4 14.933v104.533l72.533-57.6c4.267-2.133 8.533-4.267 12.8-4.267 6.4 0 12.8 2.133 17.067 8.533 4.267 8.533 4.267 21.333-6.4 29.867v0z" />
<glyph unicode="&#xe943;" glyph-name="Baby_POS" d="M512 917.333c258.133 0 469.333-211.2 469.333-469.333s-211.2-469.333-469.333-469.333c-258.133 0-469.333 211.2-469.333 469.333s211.2 469.333 469.333 469.333v0zM512 960c-283.733 0-512-228.267-512-512s228.267-512 512-512c283.733 0 512 228.267 512 512s-228.267 512-512 512v0 0zM512 597.333c46.933 0 85.333 38.4 85.333 85.333s-38.4 85.333-85.333 85.333c-46.933 0-85.333-38.4-85.333-85.333s38.4-85.333 85.333-85.333v0zM512 725.333c23.467 0 42.667-19.2 42.667-42.667s-19.2-42.667-42.667-42.667c-23.467 0-42.667 19.2-42.667 42.667s19.2 42.667 42.667 42.667v0zM716.8 443.733l-106.667 85.333c0 0-2.133 0-2.133 2.133-12.8 23.467-42.667 44.8-96 44.8s-83.2-21.333-96-46.933c0 0-2.133 0-2.133-2.133l-106.667-85.333c-8.533-6.4-10.667-21.333-4.267-29.867 4.267-4.267 10.667-8.533 17.067-8.533 4.267 0 8.533 2.133 12.8 4.267l72.533 57.6v-102.4c0-6.4 2.133-10.667 6.4-14.933l17.067-17.067-40.533-61.867c-2.133-2.133-2.133-4.267-2.133-8.533v-8.533l21.333-106.667c2.133-10.667 10.667-17.067 21.333-17.067h4.267c10.667 2.133 19.2 12.8 17.067 25.6l-19.2 98.133 32 46.933 14.933-14.933c4.267-4.267 8.533-6.4 14.933-6.4h42.667c6.4 0 10.667 2.133 14.933 6.4l14.933 14.933 32-46.933-21.333-98.133c-2.133-10.667 4.267-23.467 17.067-25.6h4.267c10.667 0 19.2 6.4 21.333 17.067l21.333 106.667v8.533c0 2.133-2.133 6.4-2.133 8.533l-40.533 61.867 17.067 17.067c4.267 4.267 6.4 8.533 6.4 14.933v104.533l72.533-57.6c4.267-2.133 8.533-4.267 12.8-4.267 6.4 0 12.8 2.133 17.067 8.533 4.267 8.533 4.267 21.333-6.4 29.867v0zM448 490.667c0 12.8 6.4 42.667 64 42.667s64-29.867 64-42.667v-64h-128v64zM524.8 320h-25.6l-51.2 51.2v12.8h128v-12.8l-51.2-51.2z" />
<glyph unicode="&#xe944;" glyph-name="Baby_stroller_NEG" d="M640 192c0-12.8-8.533-21.333-21.333-21.333s-21.333 8.533-21.333 21.333c0 12.8 8.533 21.333 21.333 21.333s21.333-8.533 21.333-21.333v0zM512 320c98.133 0 179.2 74.667 189.867 170.667h-379.733c10.667-96 91.733-170.667 189.867-170.667v0zM1024 448c0-283.733-228.267-512-512-512s-512 228.267-512 512c0 283.733 228.267 512 512 512s512-228.267 512-512v0zM469.333 192c0 36.267-27.733 64-64 64s-64-27.733-64-64c0-36.267 27.733-64 64-64s64 27.733 64 64v0zM682.667 192c0 36.267-27.733 64-64 64s-64-27.733-64-64c0-36.267 27.733-64 64-64s64 27.733 64 64v0zM746.667 512c0 130.133-104.533 234.667-234.667 234.667-12.8 0-21.333-8.533-21.333-21.333v-192h-172.8c-10.667 49.067-53.333 85.333-104.533 85.333-12.8 0-21.333-8.533-21.333-21.333s8.533-21.333 21.333-21.333c36.267 0 64-27.733 64-64 0-130.133 104.533-234.667 234.667-234.667s234.667 104.533 234.667 234.667v0zM405.333 213.333c-12.8 0-21.333-8.533-21.333-21.333s8.533-21.333 21.333-21.333c12.8 0 21.333 8.533 21.333 21.333s-8.533 21.333-21.333 21.333v0zM533.333 701.867v-168.533h168.533c-8.533 89.6-78.933 160-168.533 168.533v0z" />
<glyph unicode="&#xe945;" glyph-name="Baby_stroller_POS" d="M512 960c-283.733 0-512-228.267-512-512s228.267-512 512-512c283.733 0 512 228.267 512 512s-228.267 512-512 512v0zM512-21.333c-258.133 0-469.333 211.2-469.333 469.333s211.2 469.333 469.333 469.333c258.133 0 469.333-211.2 469.333-469.333s-211.2-469.333-469.333-469.333v0zM746.667 512c0 130.133-104.533 234.667-234.667 234.667-12.8 0-21.333-8.533-21.333-21.333v-192h-172.8c-10.667 49.067-53.333 85.333-104.533 85.333-12.8 0-21.333-8.533-21.333-21.333s8.533-21.333 21.333-21.333c36.267 0 64-27.733 64-64 0-130.133 104.533-234.667 234.667-234.667s234.667 104.533 234.667 234.667v0zM533.333 701.867c89.6-10.667 160-81.067 168.533-168.533h-168.533v168.533zM512 320c-98.133 0-179.2 74.667-189.867 170.667h381.867c-12.8-96-93.867-170.667-192-170.667v0zM618.667 256c-36.267 0-64-27.733-64-64s27.733-64 64-64c36.267 0 64 27.733 64 64s-27.733 64-64 64v0zM618.667 170.667c-12.8 0-21.333 8.533-21.333 21.333s8.533 21.333 21.333 21.333c12.8 0 21.333-8.533 21.333-21.333s-8.533-21.333-21.333-21.333v0zM405.333 256c-36.267 0-64-27.733-64-64s27.733-64 64-64c36.267 0 64 27.733 64 64s-27.733 64-64 64v0zM405.333 170.667c-12.8 0-21.333 8.533-21.333 21.333s8.533 21.333 21.333 21.333c12.8 0 21.333-8.533 21.333-21.333s-8.533-21.333-21.333-21.333v0z" />
<glyph unicode="&#xe946;" glyph-name="Backup_complete_NEG" d="M512 960c-283.733 0-512-228.267-512-512s228.267-512 512-512c283.733 0 512 228.267 512 512s-228.267 512-512 512v0zM704 192c0-12.8-8.533-21.333-21.333-21.333s-21.333 8.533-21.333 21.333v49.067c-42.667-32-96-49.067-149.333-49.067-140.8 0-256 115.2-256 256 0 12.8 8.533 21.333 21.333 21.333s21.333-8.533 21.333-21.333c0-117.333 96-213.333 213.333-213.333 46.933 0 91.733 14.933 128 42.667h-64c-12.8 0-21.333 8.533-21.333 21.333s8.533 21.333 21.333 21.333h106.667c12.8 0 21.333-8.533 21.333-21.333v-106.667zM411.733 462.933c8.533 8.533 21.333 8.533 29.867 0l49.067-49.067 113.067 113.067c8.533 8.533 21.333 8.533 29.867 0s8.533-21.333 0-29.867l-128-128c-4.267-4.267-8.533-6.4-14.933-6.4s-10.667 2.133-14.933 6.4l-64 64c-8.533 8.533-8.533 21.333 0 29.867v0zM746.667 426.667c-12.8 0-21.333 8.533-21.333 21.333 0 117.333-96 213.333-213.333 213.333-46.933 0-91.733-14.933-128-42.667h64c12.8 0 21.333-8.533 21.333-21.333s-8.533-21.333-21.333-21.333h-106.667c-12.8 0-21.333 8.533-21.333 21.333v106.667c0 12.8 8.533 21.333 21.333 21.333s21.333-8.533 21.333-21.333v-49.067c42.667 32 96 49.067 149.333 49.067 140.8 0 256-115.2 256-256 0-12.8-8.533-21.333-21.333-21.333v0z" />
<glyph unicode="&#xe947;" glyph-name="Backup_complete_POS" d="M512 917.333c258.133 0 469.333-211.2 469.333-469.333s-211.2-469.333-469.333-469.333c-258.133 0-469.333 211.2-469.333 469.333s211.2 469.333 469.333 469.333v0zM512 960c-283.733 0-512-228.267-512-512s228.267-512 512-512c283.733 0 512 228.267 512 512s-228.267 512-512 512v0 0zM704 298.667v-106.667c0-12.8-8.533-21.333-21.333-21.333s-21.333 8.533-21.333 21.333v49.067c-42.667-32-96-49.067-149.333-49.067-140.8 0-256 115.2-256 256 0 12.8 8.533 21.333 21.333 21.333s21.333-8.533 21.333-21.333c0-117.333 96-213.333 213.333-213.333 46.933 0 91.733 14.933 128 42.667h-64c-12.8 0-21.333 8.533-21.333 21.333s8.533 21.333 21.333 21.333h106.667c12.8 0 21.333-8.533 21.333-21.333v0zM512 704c-53.333 0-106.667-17.067-149.333-49.067v49.067c0 12.8-8.533 21.333-21.333 21.333s-21.333-8.533-21.333-21.333v-106.667c0-12.8 8.533-21.333 21.333-21.333h106.667c12.8 0 21.333 8.533 21.333 21.333s-8.533 21.333-21.333 21.333h-64c36.267 27.733 81.067 42.667 128 42.667 117.333 0 213.333-96 213.333-213.333 0-12.8 8.533-21.333 21.333-21.333s21.333 8.533 21.333 21.333c0 140.8-115.2 256-256 256v0zM490.667 362.667c6.4 0 10.667 2.133 14.933 6.4l128 128c8.533 8.533 8.533 21.333 0 29.867s-21.333 8.533-29.867 0l-113.067-113.067-49.067 49.067c-8.533 8.533-21.333 8.533-29.867 0s-8.533-21.333 0-29.867l64-64c4.267-4.267 8.533-6.4 14.933-6.4v0z" />
<glyph unicode="&#xe948;" glyph-name="Backup_NEG" d="M512 960c-283.733 0-512-228.267-512-512s228.267-512 512-512c283.733 0 512 228.267 512 512s-228.267 512-512 512v0zM394.667 544c8.533 8.533 21.333 8.533 29.867 0l85.333-85.333 49.067 49.067c8.533 8.533 21.333 8.533 29.867 0s8.533-21.333 0-29.867l-64-64c-2.133-6.4-6.4-8.533-12.8-8.533s-10.667 2.133-14.933 6.4l-102.4 100.267c-6.4 8.533-6.4 23.467 0 32v0zM512 192c-12.8 0-21.333 8.533-21.333 21.333s8.533 21.333 21.333 21.333c117.333 0 213.333 96 213.333 213.333s-96 213.333-213.333 213.333c-117.333 0-213.333-96-213.333-213.333 0-46.933 14.933-91.733 42.667-128v64c0 12.8 8.533 21.333 21.333 21.333s21.333-8.533 21.333-21.333v-106.667c0-12.8-8.533-21.333-21.333-21.333h-106.667c-12.8 0-21.333 8.533-21.333 21.333s8.533 21.333 21.333 21.333h49.067c-32 42.667-49.067 96-49.067 149.333 0 140.8 115.2 256 256 256s256-115.2 256-256c0-140.8-115.2-256-256-256v0z" />
<glyph unicode="&#xe949;" glyph-name="Backup_POS" d="M256 298.667h49.067c-32 42.667-49.067 96-49.067 149.333 0 140.8 115.2 256 256 256s256-115.2 256-256c0-140.8-115.2-256-256-256-12.8 0-21.333 8.533-21.333 21.333s8.533 21.333 21.333 21.333c117.333 0 213.333 96 213.333 213.333s-96 213.333-213.333 213.333c-117.333 0-213.333-96-213.333-213.333 0-46.933 14.933-91.733 42.667-128v64c0 12.8 8.533 21.333 21.333 21.333s21.333-8.533 21.333-21.333v-106.667c0-12.8-8.533-21.333-21.333-21.333h-106.667c-12.8 0-21.333 8.533-21.333 21.333s8.533 21.333 21.333 21.333v0zM561.067 505.6l-49.067-49.067-85.333 85.333c-8.533 8.533-21.333 8.533-29.867 0s-8.533-21.333 0-29.867l100.267-100.267c4.267-4.267 10.667-6.4 14.933-6.4s10.667 2.133 14.933 6.4l64 64c8.533 8.533 8.533 21.333 0 29.867s-21.333 8.533-29.867 0v0zM512 917.333c258.133 0 469.333-211.2 469.333-469.333s-211.2-469.333-469.333-469.333c-258.133 0-469.333 211.2-469.333 469.333s211.2 469.333 469.333 469.333v0zM512 960c-283.733 0-512-228.267-512-512s228.267-512 512-512c283.733 0 512 228.267 512 512s-228.267 512-512 512v0 0z" />
<glyph unicode="&#xe94a;" glyph-name="Band_aid_NEG" d="M780.8 330.667c8.533-8.533 8.533-21.333 0-29.867l-119.467-121.6c-8.533-8.533-21.333-8.533-29.867 0l-87.467 87.467 151.467 151.467 85.333-87.467zM663.467 448l-151.467-151.467-151.467 151.467 151.467 151.467 151.467-151.467zM467.2 462.933c-8.533 8.533-21.333 8.533-29.867 0s-8.533-21.333 0-29.867c8.533-8.533 21.333-8.533 29.867 0s8.533 21.333 0 29.867v0zM526.933 403.2c-8.533 8.533-21.333 8.533-29.867 0s-8.533-21.333 0-29.867c8.533-8.533 21.333-8.533 29.867 0s8.533 21.333 0 29.867v0zM526.933 522.667c-8.533 8.533-21.333 8.533-29.867 0s-8.533-21.333 0-29.867c8.533-8.533 21.333-8.533 29.867 0s8.533 21.333 0 29.867v0zM586.667 433.067c8.533 8.533 8.533 21.333 0 29.867s-21.333 8.533-29.867 0c-8.533-8.533-8.533-21.333 0-29.867s21.333-8.533 29.867 0v0zM1024 448c0-283.733-228.267-512-512-512s-512 228.267-512 512c0 283.733 228.267 512 512 512s512-228.267 512-512v0zM810.667 360.533l-386.133 386.133c-23.467 23.467-66.133 23.467-89.6 0l-121.6-119.467c-25.6-25.6-25.6-66.133 0-89.6l386.133-388.267c12.8-12.8 27.733-19.2 44.8-19.2s34.133 6.4 44.8 19.2l121.6 121.6c25.6 23.467 25.6 64 0 89.6v0zM392.533 716.8c-4.267 4.267-8.533 6.4-14.933 6.4s-10.667-2.133-14.933-6.4l-119.467-119.467c-8.533-8.533-8.533-21.333 0-29.867l87.467-87.467 151.467 151.467-89.6 85.333z" />
<glyph unicode="&#xe94b;" glyph-name="Band_aid_POS" d="M810.667 360.533l-386.133 386.133c-23.467 23.467-66.133 23.467-89.6 0l-121.6-119.467c-25.6-25.6-25.6-66.133 0-89.6l386.133-388.267c12.8-12.8 27.733-19.2 44.8-19.2s34.133 6.4 44.8 19.2l121.6 121.6c25.6 23.467 25.6 64 0 89.6v0zM663.467 448l-151.467-151.467-151.467 151.467 151.467 151.467 151.467-151.467zM243.2 597.333l121.6 121.6c4.267 4.267 8.533 6.4 14.933 6.4s10.667-2.133 14.933-6.4l87.467-87.467-151.467-151.467-87.467 87.467c-8.533 6.4-8.533 21.333 0 29.867v0zM780.8 298.667l-119.467-119.467c-8.533-8.533-21.333-8.533-29.867 0l-87.467 87.467 151.467 151.467 87.467-87.467c6.4-8.533 6.4-23.467-2.133-32v0zM467.2 462.933c8.533-8.533 8.533-21.333 0-29.867s-21.333-8.533-29.867 0c-8.533 8.533-8.533 21.333 0 29.867s21.333 8.533 29.867 0v0zM526.933 522.667c8.533-8.533 8.533-21.333 0-29.867s-21.333-8.533-29.867 0c-8.533 8.533-8.533 21.333 0 29.867s21.333 8.533 29.867 0v0zM526.933 403.2c8.533-8.533 8.533-21.333 0-29.867s-21.333-8.533-29.867 0c-8.533 8.533-8.533 21.333 0 29.867s21.333 8.533 29.867 0v0zM556.8 433.067c-8.533 8.533-8.533 21.333 0 29.867s21.333 8.533 29.867 0c8.533-8.533 8.533-21.333 0-29.867s-21.333-8.533-29.867 0v0zM512 917.333c258.133 0 469.333-211.2 469.333-469.333s-211.2-469.333-469.333-469.333c-258.133 0-469.333 211.2-469.333 469.333s211.2 469.333 469.333 469.333v0zM512 960c-283.733 0-512-228.267-512-512s228.267-512 512-512c283.733 0 512 228.267 512 512s-228.267 512-512 512v0 0z" />
<glyph unicode="&#xe94c;" glyph-name="Bar_chart_graph_1_NEG" d="M512 960c-283.733 0-512-228.267-512-512s228.267-512 512-512c283.733 0 512 228.267 512 512s-228.267 512-512 512v0zM234.667 234.667c0-12.8-8.533-21.333-21.333-21.333s-21.333 8.533-21.333 21.333v42.667c0 12.8 8.533 21.333 21.333 21.333s21.333-8.533 21.333-21.333v-42.667zM320 234.667c0-12.8-8.533-21.333-21.333-21.333s-21.333 8.533-21.333 21.333v85.333c0 12.8 8.533 21.333 21.333 21.333s21.333-8.533 21.333-21.333v-85.333zM405.333 234.667c0-12.8-8.533-21.333-21.333-21.333s-21.333 8.533-21.333 21.333v149.333c0 12.8 8.533 21.333 21.333 21.333s21.333-8.533 21.333-21.333v-149.333zM490.667 234.667c0-12.8-8.533-21.333-21.333-21.333s-21.333 8.533-21.333 21.333v170.667c0 12.8 8.533 21.333 21.333 21.333s21.333-8.533 21.333-21.333v-170.667zM576 234.667c0-12.8-8.533-21.333-21.333-21.333s-21.333 8.533-21.333 21.333v170.667c0 12.8 8.533 21.333 21.333 21.333s21.333-8.533 21.333-21.333v-170.667zM661.333 234.667c0-12.8-8.533-21.333-21.333-21.333s-21.333 8.533-21.333 21.333v234.667c0 12.8 8.533 21.333 21.333 21.333s21.333-8.533 21.333-21.333v-234.667zM746.667 234.667c0-12.8-8.533-21.333-21.333-21.333s-21.333 8.533-21.333 21.333v298.667c0 12.8 8.533 21.333 21.333 21.333s21.333-8.533 21.333-21.333v-298.667zM789.333 618.667c0-12.8-8.533-21.333-21.333-21.333s-21.333 8.533-21.333 21.333v34.133l-177.067-177.067c-4.267-4.267-8.533-6.4-14.933-6.4h-164.267l-164.267-123.733c-4.267-2.133-8.533-4.267-12.8-4.267-6.4 0-12.8 2.133-17.067 8.533-6.4 8.533-4.267 23.467 4.267 29.867l170.667 128c4.267 2.133 8.533 4.267 12.8 4.267h162.133l170.667 170.667h-34.133c-12.8 0-21.333 8.533-21.333 21.333s8.533 21.333 21.333 21.333h85.333c2.133 0 6.4 0 8.533-2.133 4.267-2.133 8.533-6.4 10.667-10.667 2.133-2.133 2.133-6.4 2.133-8.533v-85.333z" />
<glyph unicode="&#xe94d;" glyph-name="Bar_chart_graph_1_POS" d="M234.667 277.333v-42.667c0-12.8-8.533-21.333-21.333-21.333s-21.333 8.533-21.333 21.333v42.667c0 12.8 8.533 21.333 21.333 21.333s21.333-8.533 21.333-21.333v0zM298.667 341.333c-12.8 0-21.333-8.533-21.333-21.333v-85.333c0-12.8 8.533-21.333 21.333-21.333s21.333 8.533 21.333 21.333v85.333c0 12.8-8.533 21.333-21.333 21.333v0zM384 405.333c-12.8 0-21.333-8.533-21.333-21.333v-149.333c0-12.8 8.533-21.333 21.333-21.333s21.333 8.533 21.333 21.333v149.333c0 12.8-8.533 21.333-21.333 21.333v0zM469.333 426.667c-12.8 0-21.333-8.533-21.333-21.333v-170.667c0-12.8 8.533-21.333 21.333-21.333s21.333 8.533 21.333 21.333v170.667c0 12.8-8.533 21.333-21.333 21.333v0zM554.667 426.667c-12.8 0-21.333-8.533-21.333-21.333v-170.667c0-12.8 8.533-21.333 21.333-21.333s21.333 8.533 21.333 21.333v170.667c0 12.8-8.533 21.333-21.333 21.333v0zM640 490.667c-12.8 0-21.333-8.533-21.333-21.333v-234.667c0-12.8 8.533-21.333 21.333-21.333s21.333 8.533 21.333 21.333v234.667c0 12.8-8.533 21.333-21.333 21.333v0zM725.333 554.667c-12.8 0-21.333-8.533-21.333-21.333v-298.667c0-12.8 8.533-21.333 21.333-21.333s21.333 8.533 21.333 21.333v298.667c0 12.8-8.533 21.333-21.333 21.333v0zM787.2 712.533c-2.133 4.267-6.4 8.533-10.667 10.667-2.133 2.133-6.4 2.133-8.533 2.133h-85.333c-12.8 0-21.333-8.533-21.333-21.333s8.533-21.333 21.333-21.333h34.133l-170.667-170.667h-162.133c-4.267 0-8.533-2.133-12.8-4.267l-170.667-128c-8.533-6.4-10.667-21.333-4.267-29.867 4.267-6.4 10.667-8.533 17.067-8.533 4.267 0 8.533 2.133 12.8 4.267l164.267 123.733h164.267c6.4 0 10.667 2.133 14.933 6.4l177.067 177.067v-34.133c0-12.8 8.533-21.333 21.333-21.333s21.333 8.533 21.333 21.333v85.333c0 2.133 0 6.4-2.133 8.533v0zM512 917.333c258.133 0 469.333-211.2 469.333-469.333s-211.2-469.333-469.333-469.333c-258.133 0-469.333 211.2-469.333 469.333s211.2 469.333 469.333 469.333v0zM512 960c-283.733 0-512-228.267-512-512s228.267-512 512-512c283.733 0 512 228.267 512 512s-228.267 512-512 512v0 0z" />
<glyph unicode="&#xe94e;" glyph-name="Bar_chart_graph_2_NEG" d="M512 960c-283.733 0-512-228.267-512-512s228.267-512 512-512c283.733 0 512 228.267 512 512s-228.267 512-512 512v0zM704 448c0 12.8 8.533 21.333 21.333 21.333s21.333-8.533 21.333-21.333v-128c0-12.8-8.533-21.333-21.333-21.333s-21.333 8.533-21.333 21.333v128zM618.667 618.667c0 12.8 8.533 21.333 21.333 21.333s21.333-8.533 21.333-21.333v-298.667c0-12.8-8.533-21.333-21.333-21.333s-21.333 8.533-21.333 21.333v298.667zM533.333 554.667c0 12.8 8.533 21.333 21.333 21.333s21.333-8.533 21.333-21.333v-234.667c0-12.8-8.533-21.333-21.333-21.333s-21.333 8.533-21.333 21.333v234.667zM448 661.333c0 12.8 8.533 21.333 21.333 21.333s21.333-8.533 21.333-21.333v-341.333c0-12.8-8.533-21.333-21.333-21.333s-21.333 8.533-21.333 21.333v341.333zM362.667 469.333c0 12.8 8.533 21.333 21.333 21.333s21.333-8.533 21.333-21.333v-149.333c0-12.8-8.533-21.333-21.333-21.333s-21.333 8.533-21.333 21.333v149.333zM277.333 405.333c0 12.8 8.533 21.333 21.333 21.333s21.333-8.533 21.333-21.333v-85.333c0-12.8-8.533-21.333-21.333-21.333s-21.333 8.533-21.333 21.333v85.333zM810.667 213.333h-597.333c-12.8 0-21.333 8.533-21.333 21.333v426.667c0 12.8 8.533 21.333 21.333 21.333s21.333-8.533 21.333-21.333v-405.333h576c12.8 0 21.333-8.533 21.333-21.333s-8.533-21.333-21.333-21.333v0z" />
<glyph unicode="&#xe94f;" glyph-name="Bar_chart_graph_2_POS" d="M832 234.667c0-12.8-8.533-21.333-21.333-21.333h-597.333c-12.8 0-21.333 8.533-21.333 21.333v426.667c0 12.8 8.533 21.333 21.333 21.333s21.333-8.533 21.333-21.333v-405.333h576c12.8 0 21.333-8.533 21.333-21.333v0zM298.667 298.667c12.8 0 21.333 8.533 21.333 21.333v85.333c0 12.8-8.533 21.333-21.333 21.333s-21.333-8.533-21.333-21.333v-85.333c0-12.8 8.533-21.333 21.333-21.333v0zM384 298.667c12.8 0 21.333 8.533 21.333 21.333v149.333c0 12.8-8.533 21.333-21.333 21.333s-21.333-8.533-21.333-21.333v-149.333c0-12.8 8.533-21.333 21.333-21.333v0zM469.333 298.667c12.8 0 21.333 8.533 21.333 21.333v341.333c0 12.8-8.533 21.333-21.333 21.333s-21.333-8.533-21.333-21.333v-341.333c0-12.8 8.533-21.333 21.333-21.333v0zM554.667 298.667c12.8 0 21.333 8.533 21.333 21.333v234.667c0 12.8-8.533 21.333-21.333 21.333s-21.333-8.533-21.333-21.333v-234.667c0-12.8 8.533-21.333 21.333-21.333v0zM640 298.667c12.8 0 21.333 8.533 21.333 21.333v298.667c0 12.8-8.533 21.333-21.333 21.333s-21.333-8.533-21.333-21.333v-298.667c0-12.8 8.533-21.333 21.333-21.333v0zM725.333 298.667c12.8 0 21.333 8.533 21.333 21.333v128c0 12.8-8.533 21.333-21.333 21.333s-21.333-8.533-21.333-21.333v-128c0-12.8 8.533-21.333 21.333-21.333v0zM512 917.333c258.133 0 469.333-211.2 469.333-469.333s-211.2-469.333-469.333-469.333c-258.133 0-469.333 211.2-469.333 469.333s211.2 469.333 469.333 469.333v0zM512 960c-283.733 0-512-228.267-512-512s228.267-512 512-512c283.733 0 512 228.267 512 512s-228.267 512-512 512v0 0z" />
<glyph unicode="&#xe950;" glyph-name="basketball_NEG" d="M390.4 569.6c-42.667-42.667-96-68.267-153.6-76.8 8.533 57.6 36.267 110.933 76.8 153.6 42.667 42.667 96 68.267 153.6 76.8-6.4-59.733-34.133-113.067-76.8-153.6v0zM554.667 174.933c57.6 8.533 110.933 36.267 153.6 76.8 42.667 42.667 68.267 96 76.8 153.6-57.6-8.533-110.933-36.267-153.6-76.8-40.533-42.667-68.267-96-76.8-153.6v0zM512 725.333v-2.133c-8.533-70.4-40.533-134.4-91.733-183.467-51.2-51.2-117.333-83.2-187.733-91.733 0-66.133 23.467-130.133 66.133-179.2l390.4 390.4c-46.933 42.667-110.933 66.133-177.067 66.133v0zM1024 448c0-283.733-228.267-512-512-512s-512 228.267-512 512c0 283.733 228.267 512 512 512s512-228.267 512-512v0zM832 448c0 85.333-34.133 166.4-93.867 226.133s-140.8 93.867-226.133 93.867c-85.333 0-166.4-34.133-226.133-93.867s-93.867-140.8-93.867-226.133c0-85.333 34.133-166.4 93.867-226.133s140.8-93.867 226.133-93.867c85.333 0 166.4 34.133 226.133 93.867s93.867 140.8 93.867 226.133v0zM330.667 236.8c49.067-42.667 113.067-66.133 179.2-66.133 8.533 70.4 40.533 136.533 91.733 187.733s117.333 83.2 187.733 91.733c0 66.133-23.467 130.133-66.133 179.2l-392.533-392.533z" />
<glyph unicode="&#xe951;" glyph-name="basketball_POS" d="M512 917.333c258.133 0 469.333-211.2 469.333-469.333s-211.2-469.333-469.333-469.333c-258.133 0-469.333 211.2-469.333 469.333s211.2 469.333 469.333 469.333v0zM512 960c-283.733 0-512-228.267-512-512s228.267-512 512-512c283.733 0 512 228.267 512 512s-228.267 512-512 512v0 0zM738.133 674.133c-59.733 59.733-140.8 93.867-226.133 93.867s-166.4-34.133-226.133-93.867c-59.733-59.733-93.867-140.8-93.867-226.133s34.133-166.4 93.867-226.133c59.733-59.733 140.8-93.867 226.133-93.867s166.4 34.133 226.133 93.867c59.733 59.733 93.867 140.8 93.867 226.133s-34.133 166.4-93.867 226.133v0zM512 170.667c-66.133 0-130.133 23.467-179.2 66.133l390.4 390.4c42.667-49.067 66.133-113.067 66.133-179.2-70.4-8.533-136.533-40.533-187.733-91.733-49.067-49.067-81.067-115.2-89.6-185.6v0zM234.667 448c70.4 8.533 136.533 40.533 187.733 91.733s81.067 113.067 91.733 183.467v2.133c66.133 0 130.133-23.467 179.2-66.133l-392.533-392.533c-42.667 51.2-66.133 113.067-66.133 181.333v0zM315.733 644.267c42.667 42.667 96 68.267 153.6 76.8-8.533-57.6-36.267-110.933-76.8-153.6-42.667-42.667-96-68.267-153.6-76.8 8.533 57.6 34.133 110.933 76.8 153.6v0zM708.267 251.733c-42.667-42.667-96-68.267-153.6-76.8 8.533 57.6 36.267 110.933 76.8 153.6 42.667 42.667 96 68.267 153.6 76.8-8.533-57.6-34.133-110.933-76.8-153.6v0z" />
<glyph unicode="&#xe952;" glyph-name="Battery_0_NEG" d="M746.667 490.667h42.667v-85.333h-42.667v85.333zM234.667 576h469.333v-256h-469.333v256zM439.467 448l-49.067-49.067c-8.533-8.533-8.533-21.333 0-29.867 4.267-4.267 10.667-6.4 14.933-6.4s10.667 2.133 14.933 6.4l49.067 49.067 49.067-49.067c4.267-4.267 10.667-6.4 14.933-6.4s10.667 2.133 14.933 6.4c8.533 8.533 8.533 21.333 0 29.867l-49.067 49.067 49.067 49.067c8.533 8.533 8.533 21.333 0 29.867s-21.333 8.533-29.867 0l-49.067-49.067-49.067 49.067c-8.533 8.533-21.333 8.533-29.867 0s-8.533-21.333 0-29.867l49.067-49.067zM1024 448c0-283.733-228.267-512-512-512s-512 228.267-512 512c0 283.733 228.267 512 512 512s512-228.267 512-512v0zM832 512c0 12.8-8.533 21.333-21.333 21.333h-64v64c0 12.8-8.533 21.333-21.333 21.333h-512c-12.8 0-21.333-8.533-21.333-21.333v-298.667c0-12.8 8.533-21.333 21.333-21.333h512c12.8 0 21.333 8.533 21.333 21.333v64h64c12.8 0 21.333 8.533 21.333 21.333v128z" />
<glyph unicode="&#xe953;" glyph-name="Battery_0_POS" d="M390.4 398.933l49.067 49.067-49.067 49.067c-8.533 8.533-8.533 21.333 0 29.867s21.333 8.533 29.867 0l49.067-49.067 49.067 49.067c8.533 8.533 21.333 8.533 29.867 0s8.533-21.333 0-29.867l-49.067-49.067 49.067-49.067c8.533-8.533 8.533-21.333 0-29.867-4.267-4.267-8.533-6.4-14.933-6.4s-10.667 2.133-14.933 6.4l-49.067 49.067-49.067-49.067c-4.267-4.267-8.533-6.4-14.933-6.4s-10.667 2.133-14.933 6.4c-8.533 8.533-8.533 21.333 0 29.867v0zM832 512v-128c0-12.8-8.533-21.333-21.333-21.333h-64v-64c0-12.8-8.533-21.333-21.333-21.333h-512c-12.8 0-21.333 8.533-21.333 21.333v298.667c0 12.8 8.533 21.333 21.333 21.333h512c12.8 0 21.333-8.533 21.333-21.333v-64h64c12.8 0 21.333-8.533 21.333-21.333v0zM704 576h-469.333v-256h469.333v256zM789.333 490.667h-42.667v-85.333h42.667v85.333zM512 917.333c258.133 0 469.333-211.2 469.333-469.333s-211.2-469.333-469.333-469.333c-258.133 0-469.333 211.2-469.333 469.333s211.2 469.333 469.333 469.333v0zM512 960c-283.733 0-512-228.267-512-512s228.267-512 512-512c283.733 0 512 228.267 512 512s-228.267 512-512 512v0 0z" />
<glyph unicode="&#xe954;" glyph-name="Battery_1_NEG" d="M746.667 490.667h42.667v-85.333h-42.667v85.333zM234.667 576h469.333v-256h-469.333v256zM277.333 384c0-12.8 8.533-21.333 21.333-21.333s21.333 8.533 21.333 21.333v128c0 12.8-8.533 21.333-21.333 21.333s-21.333-8.533-21.333-21.333v-128zM1024 448c0-283.733-228.267-512-512-512s-512 228.267-512 512c0 283.733 228.267 512 512 512s512-228.267 512-512v0zM832 512c0 12.8-8.533 21.333-21.333 21.333h-64v64c0 12.8-8.533 21.333-21.333 21.333h-512c-12.8 0-21.333-8.533-21.333-21.333v-298.667c0-12.8 8.533-21.333 21.333-21.333h512c12.8 0 21.333 8.533 21.333 21.333v64h64c12.8 0 21.333 8.533 21.333 21.333v128z" />
<glyph unicode="&#xe955;" glyph-name="Battery_1_POS" d="M810.667 533.333h-64v64c0 12.8-8.533 21.333-21.333 21.333h-512c-12.8 0-21.333-8.533-21.333-21.333v-298.667c0-12.8 8.533-21.333 21.333-21.333h512c12.8 0 21.333 8.533 21.333 21.333v64h64c12.8 0 21.333 8.533 21.333 21.333v128c0 12.8-8.533 21.333-21.333 21.333v0zM704 320h-469.333v256h469.333v-256zM789.333 405.333h-42.667v85.333h42.667v-85.333zM277.333 384v128c0 12.8 8.533 21.333 21.333 21.333s21.333-8.533 21.333-21.333v-128c0-12.8-8.533-21.333-21.333-21.333s-21.333 8.533-21.333 21.333v0zM512 917.333c258.133 0 469.333-211.2 469.333-469.333s-211.2-469.333-469.333-469.333c-258.133 0-469.333 211.2-469.333 469.333s211.2 469.333 469.333 469.333v0zM512 960c-283.733 0-512-228.267-512-512s228.267-512 512-512c283.733 0 512 228.267 512 512s-228.267 512-512 512v0 0z" />
<glyph unicode="&#xe956;" glyph-name="Battery_2_NEG" d="M234.667 320h469.333v256h-469.333v-256zM362.667 512c0 12.8 8.533 21.333 21.333 21.333s21.333-8.533 21.333-21.333v-128c0-12.8-8.533-21.333-21.333-21.333s-21.333 8.533-21.333 21.333v128zM277.333 512c0 12.8 8.533 21.333 21.333 21.333s21.333-8.533 21.333-21.333v-128c0-12.8-8.533-21.333-21.333-21.333s-21.333 8.533-21.333 21.333v128zM746.667 490.667h42.667v-85.333h-42.667v85.333zM512 960c-283.733 0-512-228.267-512-512s228.267-512 512-512c283.733 0 512 228.267 512 512s-228.267 512-512 512v0zM832 384c0-12.8-8.533-21.333-21.333-21.333h-64v-64c0-12.8-8.533-21.333-21.333-21.333h-512c-12.8 0-21.333 8.533-21.333 21.333v298.667c0 12.8 8.533 21.333 21.333 21.333h512c12.8 0 21.333-8.533 21.333-21.333v-64h64c12.8 0 21.333-8.533 21.333-21.333v-128z" />
<glyph unicode="&#xe957;" glyph-name="Battery_2_POS" d="M810.667 533.333h-64v64c0 12.8-8.533 21.333-21.333 21.333h-512c-12.8 0-21.333-8.533-21.333-21.333v-298.667c0-12.8 8.533-21.333 21.333-21.333h512c12.8 0 21.333 8.533 21.333 21.333v64h64c12.8 0 21.333 8.533 21.333 21.333v128c0 12.8-8.533 21.333-21.333 21.333v0zM704 320h-469.333v256h469.333v-256zM789.333 405.333h-42.667v85.333h42.667v-85.333zM277.333 384v128c0 12.8 8.533 21.333 21.333 21.333s21.333-8.533 21.333-21.333v-128c0-12.8-8.533-21.333-21.333-21.333s-21.333 8.533-21.333 21.333v0zM362.667 384v128c0 12.8 8.533 21.333 21.333 21.333s21.333-8.533 21.333-21.333v-128c0-12.8-8.533-21.333-21.333-21.333s-21.333 8.533-21.333 21.333v0zM512 917.333c258.133 0 469.333-211.2 469.333-469.333s-211.2-469.333-469.333-469.333c-258.133 0-469.333 211.2-469.333 469.333s211.2 469.333 469.333 469.333v0zM512 960c-283.733 0-512-228.267-512-512s228.267-512 512-512c283.733 0 512 228.267 512 512s-228.267 512-512 512v0 0z" />
<glyph unicode="&#xe958;" glyph-name="Battery_3_NEG" d="M234.667 320h469.333v256h-469.333v-256zM448 512c0 12.8 8.533 21.333 21.333 21.333s21.333-8.533 21.333-21.333v-128c0-12.8-8.533-21.333-21.333-21.333s-21.333 8.533-21.333 21.333v128zM362.667 512c0 12.8 8.533 21.333 21.333 21.333s21.333-8.533 21.333-21.333v-128c0-12.8-8.533-21.333-21.333-21.333s-21.333 8.533-21.333 21.333v128zM277.333 512c0 12.8 8.533 21.333 21.333 21.333s21.333-8.533 21.333-21.333v-128c0-12.8-8.533-21.333-21.333-21.333s-21.333 8.533-21.333 21.333v128zM512 960c-283.733 0-512-228.267-512-512s228.267-512 512-512c283.733 0 512 228.267 512 512s-228.267 512-512 512v0zM832 384c0-12.8-8.533-21.333-21.333-21.333h-64v-64c0-12.8-8.533-21.333-21.333-21.333h-512c-12.8 0-21.333 8.533-21.333 21.333v298.667c0 12.8 8.533 21.333 21.333 21.333h512c12.8 0 21.333-8.533 21.333-21.333v-64h64c12.8 0 21.333-8.533 21.333-21.333v-128zM746.667 490.667h42.667v-85.333h-42.667v85.333z" />
<glyph unicode="&#xe959;" glyph-name="Battery_3_POS" d="M810.667 533.333h-64v64c0 12.8-8.533 21.333-21.333 21.333h-512c-12.8 0-21.333-8.533-21.333-21.333v-298.667c0-12.8 8.533-21.333 21.333-21.333h512c12.8 0 21.333 8.533 21.333 21.333v64h64c12.8 0 21.333 8.533 21.333 21.333v128c0 12.8-8.533 21.333-21.333 21.333v0zM704 320h-469.333v256h469.333v-256zM789.333 405.333h-42.667v85.333h42.667v-85.333zM277.333 384v128c0 12.8 8.533 21.333 21.333 21.333s21.333-8.533 21.333-21.333v-128c0-12.8-8.533-21.333-21.333-21.333s-21.333 8.533-21.333 21.333v0zM362.667 384v128c0 12.8 8.533 21.333 21.333 21.333s21.333-8.533 21.333-21.333v-128c0-12.8-8.533-21.333-21.333-21.333s-21.333 8.533-21.333 21.333v0zM448 384v128c0 12.8 8.533 21.333 21.333 21.333s21.333-8.533 21.333-21.333v-128c0-12.8-8.533-21.333-21.333-21.333s-21.333 8.533-21.333 21.333v0zM512 917.333c258.133 0 469.333-211.2 469.333-469.333s-211.2-469.333-469.333-469.333c-258.133 0-469.333 211.2-469.333 469.333s211.2 469.333 469.333 469.333v0zM512 960c-283.733 0-512-228.267-512-512s228.267-512 512-512c283.733 0 512 228.267 512 512s-228.267 512-512 512v0 0z" />
</font>
</defs>
</svg>
